KleiBld.ufo
<glyph name="exclam" format="1">
  <advance width="286"/>
  <unicode hex="0021"/>
  <outline>
    <contour>
      <point x="80" y="40" type="curve" smooth="yes"/>
      <point x="80" y="71.8525"/>
      <point x="105.667" y="98"/>
      <point x="138.507" y="98" type="curve" smooth="yes"/>
      <point x="170.388" y="98"/>
      <point x="196.507" y="71.8809"/>
      <point x="196.507" y="40" type="curve" smooth="yes"/>
      <point x="196.507" y="8.13184"/>
      <point x="170.406" y="-18.0996"/>
      <point x="138.507" y="-18.0996" type="curve" smooth="yes"/>
      <point x="105.649" y="-18.0996"/>
      <point x="80" y="8.16016"/>
    </contour>
    <contour>
      <point x="218.507" y="689.865" type="curve"/>
      <point x="197.5" y="233.685" type="line"/>
      <point x="196.64" y="217.037"/>
      <point x="162.951" y="196.117"/>
      <point x="144.169" y="195.713" type="curve" smooth="yes"/>
      <point x="144.007" y="195.709" type="line"/>
      <point x="143.844" y="195.712" type="line" smooth="yes"/>
      <point x="124.371" y="196.102"/>
      <point x="90.4922" y="216.541"/>
      <point x="89.5156" y="233.65" type="curve"/>
      <point x="66.5068" y="689.851" type="line"/>
      <point x="66.5068" y="723.152"/>
      <point x="107.623" y="751.434"/>
      <point x="142.929" y="751.434" type="curve" smooth="yes"/>
      <point x="178.62" y="751.434"/>
      <point x="218.507" y="722.652"/>
    </contour>
  </outline>
</glyph>
<glyph name="dollar" format="1">
  <advance width="613"/>
  <unicode hex="0024"/>
  <outline>
    <contour>
      <point x="354.959" y="260.724" type="curve"/>
      <point x="346.092" y="182.916"/>
      <point x="333.905" y="125.516"/>
      <point x="328" y="71" type="curve"/>
      <point x="378.719" y="76.2959"/>
      <point x="409.642" y="119.545"/>
      <point x="409.642" y="173" type="curve" smooth="yes"/>
      <point x="409.642" y="221.631"/>
      <point x="387" y="244"/>
    </contour>
    <contour>
      <point x="393.24" y="649.138" type="line" smooth="yes"/>
      <point x="391.396" y="635.106"/>
      <point x="389.279" y="620.464"/>
      <point x="387.488" y="606.06" type="curve"/>
      <point x="439.533" y="599.352"/>
      <point x="496.94" y="581.022"/>
      <point x="496.94" y="560.219" type="curve" smooth="yes"/>
      <point x="496.94" y="550.434"/>
      <point x="479.562" y="496.087"/>
      <point x="462" y="496.087" type="curve" smooth="yes"/>
      <point x="444.471" y="496.087"/>
      <point x="430.212" y="541.303"/>
      <point x="386" y="559" type="curve"/>
      <point x="377.972" y="498.204"/>
      <point x="372.423" y="447.161"/>
      <point x="364.602" y="381.797" type="curve"/>
      <point x="446.022" y="334.961"/>
      <point x="529.283" y="284.062"/>
      <point x="529.283" y="211.976" type="curve" smooth="yes"/>
      <point x="529.283" y="113.288"/>
      <point x="477.562" y="78.8906"/>
      <point x="436.31" y="54.9912" type="curve" smooth="yes"/>
      <point x="404.529" y="36.5801"/>
      <point x="359.662" y="28.5"/>
      <point x="318.931" y="26.2539" type="curve"/>
      <point x="315.052" y="-9.35645"/>
      <point x="313.665" y="-22.4482"/>
      <point x="313.205" y="-26.7705" type="curve"/>
      <point x="302.927" y="-42.5596"/>
      <point x="287.947" y="-46.9424"/>
      <point x="273.26" y="-46.9424" type="curve" smooth="yes"/>
      <point x="262.335" y="-46.9424"/>
      <point x="251.371" y="-44.2734"/>
      <point x="243.849" y="-38.0469" type="curve" smooth="yes"/>
      <point x="240.852" y="-35.5664" type="line"/>
      <point x="241.405" y="-31.9287" type="line" smooth="yes"/>
      <point x="244.722" y="-10.1211"/>
      <point x="248.137" y="12.7266"/>
      <point x="251.066" y="32.6465" type="curve"/>
      <point x="172.164" y="48.8691"/>
      <point x="114.56" y="98.0703"/>
      <point x="114.56" y="129.079" type="curve" smooth="yes"/>
      <point x="114.56" y="148.576"/>
      <point x="143.394" y="188.2"/>
      <point x="162" y="188.2" type="curve" smooth="yes"/>
      <point x="179.431" y="188.2"/>
      <point x="193.789" y="114.536"/>
      <point x="254.783" y="87.126" type="curve"/>
      <point x="265.887" y="165.349"/>
      <point x="274.06" y="226.181"/>
      <point x="282.361" y="296.922" type="curve"/>
      <point x="210.703" y="336.013"/>
      <point x="120.485" y="398.454"/>
      <point x="120.485" y="461.93" type="curve" smooth="yes"/>
      <point x="120.485" y="534.975"/>
      <point x="200.328" y="611.011"/>
      <point x="318.695" y="619.241" type="curve"/>
      <point x="320.203" y="637.605"/>
      <point x="321.4" y="652.622"/>
      <point x="322.75" y="670" type="curve" smooth="yes"/>
      <point x="322.773" y="670" type="line"/>
      <point x="322.83" y="670" type="line" smooth="yes"/>
      <point x="325.356" y="673.526"/>
      <point x="346.481" y="674.557"/>
      <point x="357.399" y="674.557" type="curve" smooth="yes"/>
      <point x="373.089" y="674.557"/>
      <point x="392.25" y="664.998"/>
      <point x="393.281" y="650.493" type="curve" smooth="yes"/>
      <point x="393.329" y="649.813" type="line"/>
    </contour>
    <contour>
      <point x="295.822" y="419.481" type="curve"/>
      <point x="301.938" y="477.295"/>
      <point x="305.773" y="518.629"/>
      <point x="310.742" y="576.276" type="curve"/>
      <point x="263.214" y="572.962"/>
      <point x="244.819" y="528.663"/>
      <point x="244.819" y="496.696" type="curve" smooth="yes"/>
      <point x="244.819" y="460.367"/>
      <point x="264" y="433"/>
    </contour>
  </outline>
</glyph>
<glyph name="ampersand" format="1">
  <advance width="882"/>
  <unicode hex="0026"/>
  <outline>
    <contour>
      <point x="297.959" y="460.431" type="curve"/>
      <point x="361.411" y="523.43"/>
      <point x="377" y="577.928"/>
      <point x="377" y="619" type="curve" smooth="yes"/>
      <point x="377" y="665.809"/>
      <point x="352.101" y="702"/>
      <point x="309" y="702" type="curve" smooth="yes"/>
      <point x="261.756" y="702"/>
      <point x="242" y="643.72"/>
      <point x="242" y="604" type="curve" smooth="yes"/>
      <point x="242" y="562.693"/>
      <point x="257.664" y="511.094"/>
    </contour>
    <contour>
      <point x="521" y="254" type="curve"/>
      <point x="543" y="273"/>
      <point x="532.246" y="264.783"/>
      <point x="555.437" y="286.309" type="curve" smooth="yes"/>
      <point x="567.964" y="297.937"/>
      <point x="587.328" y="314.13"/>
      <point x="587.328" y="322.915" type="curve" smooth="yes"/>
      <point x="587.328" y="329.08"/>
      <point x="573.095" y="334.42"/>
      <point x="559.28" y="334.604" type="curve" smooth="yes"/>
      <point x="552.396" y="334.696" type="line"/>
      <point x="552.302" y="363.998" type="line"/>
      <point x="742" y="364" type="line"/>
      <point x="742" y="334.684" type="line"/>
      <point x="735.079" y="334.605" type="line" smooth="yes"/>
      <point x="723.082" y="334.471"/>
      <point x="714.681" y="328.149"/>
      <point x="706.791" y="323.761" type="curve" smooth="yes"/>
      <point x="693.196" y="316.198"/>
      <point x="647.277" y="278.378"/>
      <point x="634.95" y="266.05" type="curve" smooth="yes"/>
      <point x="612.368" y="243.469"/>
      <point x="579.047" y="220.038"/>
      <point x="562.628" y="196.285" type="curve"/>
      <point x="604.235" y="134.871"/>
      <point x="666.841" y="29"/>
      <point x="719" y="29" type="curve" smooth="yes"/>
      <point x="786.373" y="29"/>
      <point x="806.478" y="63.5928"/>
      <point x="813.959" y="76.3818" type="curve"/>
      <point x="829.624" y="60.3535" type="line"/>
      <point x="816.725" y="21.4795"/>
      <point x="789.471" y="-23"/>
      <point x="711" y="-23" type="curve" smooth="yes"/>
      <point x="607.61" y="-23"/>
      <point x="569.92" y="12.501"/>
      <point x="527.176" y="63.1172" type="curve" smooth="yes"/>
      <point x="520.799" y="70.668"/>
      <point x="497.021" y="100.633"/>
      <point x="491.191" y="108.956" type="curve"/>
      <point x="442.888" y="35.3281"/>
      <point x="410.372" y="-17"/>
      <point x="303" y="-17" type="curve" smooth="yes"/>
      <point x="162.317" y="-17"/>
      <point x="52" y="68.21"/>
      <point x="52" y="175" type="curve" smooth="yes"/>
      <point x="52" y="273.524"/>
      <point x="167.491" y="345.51"/>
      <point x="232" y="394" type="curve"/>
      <point x="181.032" y="445.227"/>
      <point x="121" y="492.845"/>
      <point x="121" y="567" type="curve" smooth="yes"/>
      <point x="121" y="655.406"/>
      <point x="198.835" y="742"/>
      <point x="305" y="742" type="curve" smooth="yes"/>
      <point x="454.204" y="742"/>
      <point x="488" y="650.911"/>
      <point x="488" y="595" type="curve" smooth="yes"/>
      <point x="488" y="514.221"/>
      <point x="445" y="460"/>
      <point x="386.004" y="395.94" type="curve"/>
      <point x="416.522" y="366.718"/>
      <point x="409.853" y="374.047"/>
      <point x="435.95" y="347.95" type="curve" smooth="yes"/>
      <point x="489.885" y="294.015"/>
      <point x="496.062" y="284.073"/>
    </contour>
    <contour>
      <point x="298.603" y="324.713" type="curve"/>
      <point x="248" y="284"/>
      <point x="184" y="239.785"/>
      <point x="184" y="174" type="curve" smooth="yes"/>
      <point x="184" y="99.7959"/>
      <point x="212.634" y="33.9297"/>
      <point x="298.498" y="33.9297" type="curve" smooth="yes"/>
      <point x="363.335" y="33.9297"/>
      <point x="400.137" y="93.1035"/>
      <point x="444.603" y="155.713" type="curve"/>
      <point x="414.12" y="195.822"/>
      <point x="407.339" y="215.77"/>
      <point x="359.586" y="264.83" type="curve" smooth="yes"/>
      <point x="334.104" y="291.009"/>
      <point x="336.09" y="289.428"/>
    </contour>
  </outline>
</glyph>
<glyph name="parenleft" format="1">
  <advance width="342"/>
  <unicode hex="0028"/>
  <outline>
    <contour>
      <point x="293.777" y="747.047" type="line" smooth="yes"/>
      <point x="266.965" y="707.86"/>
      <point x="182" y="645.89"/>
      <point x="182" y="330" type="curve" smooth="yes"/>
      <point x="182" y="35.3779"/>
      <point x="266.923" y="-27.7646"/>
      <point x="295" y="-69.8809" type="curve"/>
      <point x="295" y="-126.719" type="line"/>
      <point x="283.167" y="-115.064"/>
      <point x="60" y="50.29"/>
      <point x="60" y="331" type="curve" smooth="yes"/>
      <point x="60" y="642.025"/>
      <point x="282.945" y="783.59"/>
      <point x="295" y="793.779" type="curve"/>
      <point x="295" y="748.834" type="line"/>
    </contour>
  </outline>
</glyph>
<glyph name="comma" format="1">
  <advance width="238"/>
  <unicode hex="002C"/>
  <outline>
    <contour>
      <point x="35.7334" y="51.2119" type="curve" smooth="yes"/>
      <point x="35.7334" y="91.5303"/>
      <point x="73.5391" y="125.914"/>
      <point x="114.17" y="125.914" type="curve" smooth="yes"/>
      <point x="156.471" y="125.914"/>
      <point x="187.626" y="90.9082"/>
      <point x="187.626" y="54.9473" type="curve" smooth="yes"/>
      <point x="187.626" y="53.7021" type="line" smooth="yes"/>
      <point x="187.626" y="-62.6475"/>
      <point x="132.216" y="-100.682"/>
      <point x="33.2891" y="-100.682" type="curve"/>
      <point x="15.3604" y="-70.8008" type="line"/>
      <point x="41.6309" y="-70.8008"/>
      <point x="86.7793" y="-61.2236"/>
      <point x="86.7793" y="-29.7148" type="curve" smooth="yes"/>
      <point x="86.7793" y="-25.4775"/>
      <point x="84.7852" y="-21.3711"/>
      <point x="79.46" y="-16.0449" type="curve"/>
      <point x="59.4209" y="2.88086"/>
      <point x="35.7334" y="11.8877"/>
    </contour>
  </outline>
</glyph>
<glyph name="hyphen" format="1">
  <advance width="423"/>
  <unicode hex="002D"/>
  <outline>
    <contour>
      <point x="76.5439" y="248.982" type="line" smooth="yes"/>
      <point x="63.4023" y="253.364"/>
      <point x="58.2051" y="277.047"/>
      <point x="58.2051" y="299.754" type="curve" smooth="yes"/>
      <point x="58.2051" y="321.413"/>
      <point x="63.5059" y="346.731"/>
      <point x="78.9629" y="346.731" type="curve" smooth="yes"/>
      <point x="351" y="346.731" type="line" smooth="yes"/>
      <point x="367.033" y="346.731"/>
      <point x="369.573" y="317.377"/>
      <point x="369.573" y="297.568" type="curve" smooth="yes"/>
      <point x="369.573" y="279.285"/>
      <point x="366.838" y="248.59"/>
      <point x="351" y="248.59" type="curve" smooth="yes"/>
      <point x="77.7227" y="248.59" type="line"/>
    </contour>
  </outline>
</glyph>
<glyph name="slash" format="1">
  <advance width="428"/>
  <unicode hex="002F"/>
  <outline>
    <contour>
      <point x="39.4258" y="-93.5967" type="line" smooth="yes"/>
      <point x="141.358" y="185.22"/>
      <point x="213.29" y="416.998"/>
      <point x="285.26" y="673.889" type="curve" smooth="yes"/>
      <point x="285.882" y="676.109" type="line"/>
      <point x="287.702" y="677.525" type="line" smooth="yes"/>
      <point x="306.462" y="692.116"/>
      <point x="329.728" y="703"/>
      <point x="344" y="703" type="curve" smooth="yes"/>
      <point x="360.057" y="703"/>
      <point x="395" y="688.85"/>
      <point x="395" y="672" type="curve" smooth="yes"/>
      <point x="395" y="670.796" type="line"/>
      <point x="394.598" y="669.66" type="line" smooth="yes"/>
      <point x="307.23" y="423.266"/>
      <point x="165.628" y="-39.1709"/>
      <point x="160.871" y="-54.4785" type="curve"/>
      <point x="153.458" y="-108.025"/>
      <point x="77.917" y="-91.4082"/>
      <point x="48.4775" y="-102.547" type="curve" smooth="yes"/>
      <point x="34.1748" y="-107.959" type="line"/>
    </contour>
  </outline>
</glyph>
<glyph name="zero" format="1">
  <advance width="520"/>
  <unicode hex="0030"/>
  <outline>
    <contour>
      <point x="261" y="586" type="curve" smooth="yes"/>
      <point x="206.514" y="586"/>
      <point x="155" y="484.549"/>
      <point x="155" y="316" type="curve" smooth="yes"/>
      <point x="155" y="147.452"/>
      <point x="206.513" y="46"/>
      <point x="261" y="46" type="curve" smooth="yes"/>
      <point x="315.486" y="46"/>
      <point x="367" y="147.451"/>
      <point x="367" y="316" type="curve" smooth="yes"/>
      <point x="367" y="484.548"/>
      <point x="315.487" y="586"/>
    </contour>
    <contour>
      <point x="261" y="-8" type="curve" smooth="yes"/>
      <point x="119.683" y="-8"/>
      <point x="25" y="139.491"/>
      <point x="25" y="316" type="curve" smooth="yes"/>
      <point x="25" y="492.509"/>
      <point x="119.683" y="640"/>
      <point x="261" y="640" type="curve" smooth="yes"/>
      <point x="402.317" y="640"/>
      <point x="497" y="492.509"/>
      <point x="497" y="316" type="curve" smooth="yes"/>
      <point x="497" y="139.491"/>
      <point x="402.317" y="-8"/>
    </contour>
  </outline>
</glyph>
<glyph name="one" format="1">
  <advance width="337"/>
  <unicode hex="0031"/>
  <outline>
    <contour>
      <point x="273" y="30" type="curve" smooth="yes"/>
      <point x="280" y="30" type="line"/>
      <point x="280" y="0" type="line"/>
      <point x="78" y="0" type="line"/>
      <point x="78" y="30" type="line"/>
      <point x="85" y="30" type="line" smooth="yes"/>
      <point x="104.911" y="30"/>
      <point x="114" y="42.9912"/>
      <point x="114" y="53.6855" type="curve" smooth="yes"/>
      <point x="114" y="507.581" type="line" smooth="yes"/>
      <point x="114" y="525.983"/>
      <point x="113.072" y="547.998"/>
      <point x="102" y="547.998" type="curve" smooth="yes"/>
      <point x="90.6113" y="547.998"/>
      <point x="79.416" y="542.308"/>
      <point x="73" y="540.014" type="curve"/>
      <point x="73" y="571.999" type="line"/>
      <point x="110.168" y="586.132"/>
      <point x="176.458" y="612.979"/>
      <point x="208.145" y="637.042" type="curve" smooth="yes"/>
      <point x="211.714" y="639.753"/>
      <point x="219.473" y="644.135"/>
      <point x="226" y="644.135" type="curve" smooth="yes"/>
      <point x="236.076" y="644.135"/>
      <point x="244" y="638.288"/>
      <point x="244" y="627.382" type="curve" smooth="yes"/>
      <point x="244" y="53.6875" type="line" smooth="yes"/>
      <point x="244" y="42.1611"/>
      <point x="253.761" y="30"/>
    </contour>
  </outline>
</glyph>
<glyph name="two" format="1">
  <advance width="520"/>
  <unicode hex="0032"/>
  <outline>
    <contour>
      <point x="113.987" y="507.993" type="curve"/>
      <point x="96.0889" y="532.455" type="line"/>
      <point x="99.0156" y="537.726"/>
      <point x="132.04" y="642"/>
      <point x="274.538" y="642" type="curve" smooth="yes"/>
      <point x="401.443" y="642"/>
      <point x="472" y="592.771"/>
      <point x="472" y="510.295" type="curve" smooth="yes"/>
      <point x="472" y="449.816"/>
      <point x="431.766" y="385.755"/>
      <point x="351.979" y="279.566" type="curve" smooth="yes"/>
      <point x="287.366" y="193.574"/>
      <point x="235.385" y="106.738"/>
      <point x="202.124" y="68" type="curve"/>
      <point x="359" y="68" type="line" smooth="yes"/>
      <point x="407.076" y="68"/>
      <point x="432.376" y="86.4727"/>
      <point x="441.318" y="115.088" type="curve" smooth="yes"/>
      <point x="443.095" y="120.771" type="line"/>
      <point x="468.565" y="115.704" type="line"/>
      <point x="425.879" y="0" type="line"/>
      <point x="51" y="0" type="line"/>
      <point x="51" y="42.5293" type="line"/>
      <point x="153.812" y="162.497"/>
      <point x="222.958" y="265.565"/>
      <point x="279.038" y="343.899" type="curve" smooth="yes"/>
      <point x="315.17" y="394.369"/>
      <point x="346.031" y="450.816"/>
      <point x="346.031" y="491.283" type="curve" smooth="yes"/>
      <point x="346.031" y="546.405"/>
      <point x="314.057" y="587"/>
      <point x="250.904" y="587" type="curve" smooth="yes"/>
      <point x="197.168" y="587"/>
      <point x="146.497" y="548.892"/>
    </contour>
  </outline>
</glyph>
<glyph name="three" format="1">
  <advance width="534"/>
  <unicode hex="0033"/>
  <outline>
    <contour>
      <point x="90.8809" y="506.22" type="curve"/>
      <point x="60.9209" y="529.179" type="line"/>
      <point x="63.417" y="532.786"/>
      <point x="147.061" y="640"/>
      <point x="263.611" y="640" type="curve" smooth="yes"/>
      <point x="364.854" y="640"/>
      <point x="440" y="599.884"/>
      <point x="440" y="537.224" type="curve" smooth="yes"/>
      <point x="440" y="477.987"/>
      <point x="345.098" y="424.744"/>
      <point x="283.718" y="379.701" type="curve"/>
      <point x="379.733" y="370.653"/>
      <point x="492" y="297.072"/>
      <point x="492" y="197.573" type="curve" smooth="yes"/>
      <point x="492" y="72.1875"/>
      <point x="375.069" y="-7"/>
      <point x="219.723" y="-7" type="curve" smooth="yes"/>
      <point x="152.59" y="-7"/>
      <point x="52.7383" y="12.124"/>
      <point x="52.7383" y="62.3125" type="curve" smooth="yes"/>
      <point x="52.7383" y="75.585"/>
      <point x="62.8965" y="91.5781"/>
      <point x="79.9775" y="91.5781" type="curve" smooth="yes"/>
      <point x="92.7148" y="91.5781"/>
      <point x="107.672" y="81.4961"/>
      <point x="118.222" y="73.584" type="curve"/>
      <point x="137.332" y="59.0234"/>
      <point x="184.913" y="29"/>
      <point x="227.723" y="29" type="curve" smooth="yes"/>
      <point x="306.535" y="29"/>
      <point x="368" y="92.2939"/>
      <point x="368" y="173.435" type="curve" smooth="yes"/>
      <point x="368" y="270.153"/>
      <point x="291.987" y="311"/>
      <point x="227.889" y="311" type="curve" smooth="yes"/>
      <point x="189.025" y="311"/>
      <point x="141.82" y="281.891"/>
      <point x="128" y="281.891" type="curve" smooth="yes"/>
      <point x="118.934" y="281.891"/>
      <point x="111.186" y="286.996"/>
      <point x="111.186" y="296.615" type="curve" smooth="yes"/>
      <point x="111.186" y="303.897"/>
      <point x="118.916" y="310.562"/>
      <point x="118.976" y="310.608" type="curve"/>
      <point x="123.297" y="314.743"/>
      <point x="305.667" y="443.222"/>
      <point x="305.667" y="515.688" type="curve" smooth="yes"/>
      <point x="305.667" y="562.219"/>
      <point x="280.254" y="584"/>
      <point x="231.667" y="584" type="curve" smooth="yes"/>
      <point x="178.316" y="584"/>
      <point x="124.972" y="550.347"/>
    </contour>
  </outline>
</glyph>
<glyph name="four" format="1">
  <advance width="606"/>
  <unicode hex="0034"/>
  <outline>
    <contour>
      <point x="312.777" y="328.055" type="curve"/>
      <point x="312.777" y="489.425" type="line"/>
      <point x="262.937" y="423.547"/>
      <point x="234.517" y="381.09"/>
      <point x="188.593" y="328.937" type="curve"/>
      <point x="241.489" y="328.542"/>
      <point x="283.676" y="328.401"/>
    </contour>
    <contour>
      <point x="78.1475" y="301.039" type="curve"/>
      <point x="169.97" y="413.805"/>
      <point x="338" y="636.333"/>
      <point x="345.842" y="638" type="curve" smooth="yes"/>
      <point x="358.654" y="640.723"/>
      <point x="406.262" y="642"/>
      <point x="419.178" y="642" type="curve" smooth="yes"/>
      <point x="431.876" y="642"/>
      <point x="447.5" y="634.694"/>
      <point x="447.5" y="617.389" type="curve" smooth="yes"/>
      <point x="447.5" y="329.006" type="line"/>
      <point x="486.561" y="329.729"/>
      <point x="502.042" y="332.554"/>
      <point x="531.896" y="338.228" type="curve"/>
      <point x="529.225" y="327.225"/>
      <point x="527.5" y="308.388"/>
      <point x="527.5" y="299.426" type="curve" smooth="yes"/>
      <point x="527.5" y="288.159"/>
      <point x="529.168" y="279.429"/>
      <point x="530.399" y="271" type="curve"/>
      <point x="445.5" y="271" type="line"/>
      <point x="445.5" y="14.6221" type="line" smooth="yes"/>
      <point x="445.5" y="9.12988"/>
      <point x="442.761" y="0"/>
      <point x="432.5" y="0" type="curve" smooth="yes"/>
      <point x="326.5" y="0" type="line" smooth="yes"/>
      <point x="317.078" y="0"/>
      <point x="312.195" y="6.70117"/>
      <point x="312.195" y="12.6729" type="curve" smooth="yes"/>
      <point x="312.777" y="271" type="line"/>
      <point x="86.5" y="271" type="line" smooth="yes"/>
      <point x="80.0889" y="271"/>
      <point x="72.0146" y="276.118"/>
      <point x="72.0146" y="285.25" type="curve" smooth="yes"/>
      <point x="72.0146" y="290.936"/>
      <point x="74.4189" y="296.611"/>
    </contour>
  </outline>
</glyph>
<glyph name="five" format="1">
  <advance width="556"/>
  <unicode hex="0035"/>
  <outline>
    <contour>
      <point x="453.286" y="617.586" type="curve" smooth="yes"/>
      <point x="459.503" y="617.586"/>
      <point x="472.107" y="615.685"/>
      <point x="472.107" y="604.443" type="curve" smooth="yes"/>
      <point x="472.107" y="595.456"/>
      <point x="457.919" y="559.444"/>
      <point x="452.147" y="544.466" type="curve"/>
      <point x="200.766" y="544.466" type="line"/>
      <point x="161.711" y="391.991" type="line"/>
      <point x="206.352" y="413.039"/>
      <point x="239.885" y="420"/>
      <point x="284.834" y="420" type="curve" smooth="yes"/>
      <point x="404.741" y="420"/>
      <point x="501.286" y="346.051"/>
      <point x="501.286" y="210.367" type="curve" smooth="yes"/>
      <point x="501.286" y="89.5342"/>
      <point x="382.406" y="-5"/>
      <point x="248.063" y="-5" type="curve" smooth="yes"/>
      <point x="199.528" y="-5"/>
      <point x="133.345" y="3"/>
      <point x="82.3105" y="55.0752" type="curve"/>
      <point x="78.5146" y="58.8711"/>
      <point x="75.1025" y="66.8047"/>
      <point x="75.1025" y="71" type="curve" smooth="yes"/>
      <point x="75.1025" y="81.5225"/>
      <point x="83.5293" y="87.6016"/>
      <point x="92.4199" y="87.6016" type="curve" smooth="yes"/>
      <point x="97.2314" y="87.6016"/>
      <point x="102.179" y="85.8213"/>
      <point x="106" y="82" type="curve" smooth="yes"/>
      <point x="135.464" y="51.6152"/>
      <point x="199.412" y="43"/>
      <point x="240.412" y="43" type="curve" smooth="yes"/>
      <point x="329.117" y="43"/>
      <point x="379.286" y="134.108"/>
      <point x="379.286" y="190.368" type="curve" smooth="yes"/>
      <point x="379.286" y="248.546"/>
      <point x="333.934" y="312"/>
      <point x="249.412" y="312" type="curve" smooth="yes"/>
      <point x="198.844" y="312"/>
      <point x="111.135" y="289.599"/>
      <point x="54" y="254.031" type="curve"/>
      <point x="137.758" y="611" type="line"/>
      <point x="391.286" y="611" type="line" smooth="yes"/>
      <point x="414.366" y="611"/>
      <point x="435.574" y="617.586"/>
    </contour>
  </outline>
</glyph>
<glyph name="six" format="1">
  <advance width="520"/>
  <unicode hex="0036"/>
  <outline>
    <contour>
      <point x="425.188" y="604.465" type="curve" smooth="yes"/>
      <point x="425.188" y="597.264"/>
      <point x="415.126" y="589.929"/>
      <point x="404.809" y="587.128" type="curve" smooth="yes"/>
      <point x="370.297" y="578.467"/>
      <point x="317.051" y="560.184"/>
      <point x="266.897" y="523.624" type="curve" smooth="yes"/>
      <point x="181.956" y="461.705"/>
      <point x="145" y="358.545"/>
      <point x="145" y="259.754" type="curve" smooth="yes"/>
      <point x="145" y="169.935"/>
      <point x="205.028" y="31"/>
      <point x="282.246" y="31" type="curve" smooth="yes"/>
      <point x="356.713" y="31"/>
      <point x="390" y="100.237"/>
      <point x="390" y="195.278" type="curve" smooth="yes"/>
      <point x="390" y="291.335"/>
      <point x="342.285" y="339.37"/>
      <point x="283.619" y="339.37" type="curve" smooth="yes"/>
      <point x="254.228" y="339.37"/>
      <point x="225.646" y="329.546"/>
      <point x="206.015" y="309.585" type="curve"/>
      <point x="201.137" y="304.678"/>
      <point x="195.928" y="302.859"/>
      <point x="191.705" y="302.859" type="curve" smooth="yes"/>
      <point x="182.016" y="302.859"/>
      <point x="179.896" y="313.147"/>
      <point x="179.896" y="318.255" type="curve" smooth="yes"/>
      <point x="179.896" y="322.517"/>
      <point x="181.216" y="326.793"/>
      <point x="183.832" y="330.718" type="curve"/>
      <point x="204.225" y="357.525"/>
      <point x="248.718" y="399.335"/>
      <point x="307.316" y="399.335" type="curve" smooth="yes"/>
      <point x="395.053" y="399.335"/>
      <point x="507" y="363.867"/>
      <point x="507" y="207.367" type="curve" smooth="yes"/>
      <point x="507" y="84.8271"/>
      <point x="402.161" y="-8"/>
      <point x="268.176" y="-8" type="curve" smooth="yes"/>
      <point x="115.903" y="-8"/>
      <point x="28" y="114.655"/>
      <point x="28" y="252.348" type="curve" smooth="yes"/>
      <point x="28" y="409.751"/>
      <point x="120.806" y="504.709"/>
      <point x="192.316" y="556.298" type="curve" smooth="yes"/>
      <point x="249.68" y="596.647"/>
      <point x="351.63" y="625.893"/>
      <point x="402.601" y="635.858" type="curve" smooth="yes"/>
      <point x="415.581" y="637.875" type="line"/>
      <point x="418.089" y="633.453" type="line" smooth="yes"/>
      <point x="418.183" y="633.292"/>
      <point x="425.188" y="614.938"/>
    </contour>
  </outline>
</glyph>
<glyph name="seven" format="1">
  <advance width="534"/>
  <unicode hex="0037"/>
  <outline>
    <contour>
      <point x="356.423" y="548" type="curve"/>
      <point x="122.761" y="548" type="line" smooth="yes"/>
      <point x="106.968" y="548"/>
      <point x="101.259" y="536.43"/>
      <point x="99.3975" y="532" type="curve"/>
      <point x="93.7607" y="532" type="line" smooth="yes"/>
      <point x="86.2363" y="532"/>
      <point x="84.8867" y="538.977"/>
      <point x="84.8867" y="538.977" type="curve" smooth="yes"/>
      <point x="85.085" y="545.694" type="line" smooth="yes"/>
      <point x="88.2432" y="562.608"/>
      <point x="91.9385" y="591.763"/>
      <point x="95.2617" y="607.6" type="curve" smooth="yes"/>
      <point x="96.8379" y="615.11"/>
      <point x="98.1318" y="622"/>
      <point x="107.761" y="622" type="curve" smooth="yes"/>
      <point x="475.761" y="622" type="line" smooth="yes"/>
      <point x="488.179" y="622"/>
      <point x="492.751" y="619.14"/>
      <point x="492.751" y="614.461" type="curve" smooth="yes"/>
      <point x="492.751" y="610.694"/>
      <point x="489.73" y="604.899"/>
      <point x="486.933" y="601.093" type="curve"/>
      <point x="482.6" y="594.59" type="line" smooth="yes"/>
      <point x="359.37" y="409.295"/>
      <point x="253.739" y="169.026"/>
      <point x="225.785" y="0" type="curve"/>
      <point x="99.6201" y="0" type="line"/>
      <point x="125.256" y="164.938"/>
      <point x="244.295" y="397.516"/>
    </contour>
  </outline>
</glyph>
<glyph name="eight" format="1">
  <advance width="520"/>
  <unicode hex="0038"/>
  <outline>
    <contour>
      <point x="174" y="156" type="curve" smooth="yes"/>
      <point x="174" y="83.4863"/>
      <point x="217.716" y="30"/>
      <point x="274.272" y="30" type="curve" smooth="yes"/>
      <point x="329.126" y="30"/>
      <point x="361" y="98.7324"/>
      <point x="361" y="149" type="curve" smooth="yes"/>
      <point x="361" y="204.286"/>
      <point x="301" y="269"/>
      <point x="248.956" y="303.278" type="curve"/>
      <point x="199" y="257"/>
      <point x="174" y="208.119"/>
    </contour>
    <contour>
      <point x="203" y="514" type="curve" smooth="yes"/>
      <point x="203" y="475.163"/>
      <point x="233" y="435"/>
      <point x="273.21" y="412.05" type="curve"/>
      <point x="303" y="435"/>
      <point x="340" y="471.781"/>
      <point x="340" y="516" type="curve" smooth="yes"/>
      <point x="340" y="579.678"/>
      <point x="312.907" y="609"/>
      <point x="268.272" y="609" type="curve" smooth="yes"/>
      <point x="223.307" y="609"/>
      <point x="203" y="557.396"/>
    </contour>
    <contour>
      <point x="452" y="507.779" type="curve" smooth="yes"/>
      <point x="452" y="441.196"/>
      <point x="383.373" y="402.048"/>
      <point x="337.516" y="366.468" type="curve"/>
      <point x="421.285" y="306.949"/>
      <point x="484" y="257.122"/>
      <point x="484" y="146.674" type="curve" smooth="yes"/>
      <point x="484" y="56.2744"/>
      <point x="386.197" y="-8"/>
      <point x="267.182" y="-8" type="curve" smooth="yes"/>
      <point x="167.981" y="-8"/>
      <point x="46" y="41.0088"/>
      <point x="46" y="149.61" type="curve" smooth="yes"/>
      <point x="46" y="238.72"/>
      <point x="100.25" y="280.471"/>
      <point x="178.244" y="340.187" type="curve"/>
      <point x="120.35" y="385.062"/>
      <point x="78" y="419.857"/>
      <point x="78" y="509.737" type="curve" smooth="yes"/>
      <point x="78" y="563.459"/>
      <point x="131.382" y="643"/>
      <point x="268.272" y="643" type="curve" smooth="yes"/>
      <point x="357.469" y="643"/>
      <point x="452" y="597.563"/>
    </contour>
  </outline>
</glyph>
<glyph name="nine" format="1">
  <advance width="520"/>
  <unicode hex="0039"/>
  <outline>
    <contour>
      <point x="119.908" y="12" type="curve" smooth="yes"/>
      <point x="119.908" y="19.3096"/>
      <point x="124.651" y="30.8643"/>
      <point x="133.905" y="33.8799" type="curve" smooth="yes"/>
      <point x="165.407" y="44.1465"/>
      <point x="210.186" y="68.21"/>
      <point x="260.622" y="104.139" type="curve"/>
      <point x="356.039" y="169.376"/>
      <point x="376" y="256.771"/>
      <point x="376" y="387.179" type="curve" smooth="yes"/>
      <point x="376" y="520.062"/>
      <point x="315.506" y="602"/>
      <point x="247.954" y="602" type="curve" smooth="yes"/>
      <point x="206.375" y="602"/>
      <point x="158" y="546.327"/>
      <point x="158" y="457.396" type="curve" smooth="yes"/>
      <point x="158" y="374.255"/>
      <point x="204.274" y="301.267"/>
      <point x="252.114" y="301.267" type="curve" smooth="yes"/>
      <point x="288.262" y="301.267"/>
      <point x="306" y="312"/>
      <point x="314.005" y="320.511" type="curve" smooth="yes"/>
      <point x="315.26" y="321.778" type="line"/>
      <point x="319.427" y="326.007"/>
      <point x="323.831" y="328.932"/>
      <point x="328.964" y="328.932" type="curve" smooth="yes"/>
      <point x="334.728" y="328.932"/>
      <point x="341.647" y="324.146"/>
      <point x="341.647" y="317.382" type="curve" smooth="yes"/>
      <point x="341.647" y="311.793"/>
      <point x="338.864" y="302.604"/>
      <point x="335" y="297" type="curve" smooth="yes"/>
      <point x="308.653" y="258.793"/>
      <point x="266.434" y="246"/>
      <point x="227.701" y="246" type="curve" smooth="yes"/>
      <point x="143.994" y="246"/>
      <point x="38" y="299.489"/>
      <point x="38" y="445.465" type="curve" smooth="yes"/>
      <point x="38" y="559.444"/>
      <point x="142.249" y="641"/>
      <point x="249.034" y="641" type="curve" smooth="yes"/>
      <point x="392.303" y="641"/>
      <point x="491" y="553.359"/>
      <point x="491" y="379.581" type="curve" smooth="yes"/>
      <point x="491" y="200.604"/>
      <point x="384.676" y="125.78"/>
      <point x="316.453" y="73.666" type="curve"/>
      <point x="261.365" y="33.7295"/>
      <point x="179.151" y="3.33496"/>
      <point x="130.767" y="-8.77344" type="curve" smooth="yes"/>
      <point x="125.316" y="-10.1953" type="line"/>
      <point x="122.629" y="-4.91406"/>
      <point x="119.908" y="5.25879"/>
    </contour>
  </outline>
</glyph>
<glyph name="less" format="1">
  <advance width="488"/>
  <unicode hex="003C"/>
  <outline>
    <contour>
      <point x="164.208" y="324" type="line"/>
      <point x="438" y="166.043" type="line"/>
      <point x="438" y="61.9844" type="line"/>
      <point x="36" y="289.922" type="line"/>
      <point x="36" y="354.078" type="line"/>
      <point x="438" y="582.016" type="line"/>
      <point x="438" y="481.957" type="line"/>
    </contour>
  </outline>
</glyph>
<glyph name="question" format="1">
  <advance width="492"/>
  <unicode hex="003F"/>
  <outline>
    <contour>
      <point x="177.042" y="199.238" type="line" smooth="yes"/>
      <point x="171.968" y="245.601"/>
      <point x="162.118" y="340.269"/>
      <point x="162.117" y="340.275" type="curve" smooth="yes"/>
      <point x="162.08" y="340.637" type="line"/>
      <point x="162.08" y="341" type="line" smooth="yes"/>
      <point x="162.08" y="395.137"/>
      <point x="228.2" y="433.912"/>
      <point x="264.312" y="465.199" type="curve" smooth="yes"/>
      <point x="312" y="506.515"/>
      <point x="336" y="535.983"/>
      <point x="336" y="593" type="curve" smooth="yes"/>
      <point x="336" y="654.892"/>
      <point x="299.795" y="685"/>
      <point x="239.444" y="685" type="curve" smooth="yes"/>
      <point x="189.109" y="685"/>
      <point x="165.425" y="645.072"/>
      <point x="161.271" y="626.448" type="curve" smooth="yes"/>
      <point x="155.26" y="599.505"/>
      <point x="125.419" y="571"/>
      <point x="105.444" y="571" type="curve" smooth="yes"/>
      <point x="83.3252" y="571"/>
      <point x="51.8008" y="601.641"/>
      <point x="51.8008" y="625" type="curve" smooth="yes"/>
      <point x="51.8008" y="694.398"/>
      <point x="165.646" y="742.333"/>
      <point x="243.444" y="742.333" type="curve" smooth="yes"/>
      <point x="331.029" y="742.333"/>
      <point x="446.444" y="682.975"/>
      <point x="446.444" y="569" type="curve" smooth="yes"/>
      <point x="446.444" y="509.757"/>
      <point x="417.761" y="468.55"/>
      <point x="363.279" y="426.461" type="curve" smooth="yes"/>
      <point x="327.441" y="398.774"/>
      <point x="283.678" y="360.31"/>
      <point x="282.988" y="348.589" type="curve"/>
      <point x="282.988" y="348.589"/>
      <point x="278" y="212.576"/>
      <point x="278" y="200" type="curve" smooth="yes"/>
      <point x="278" y="193" type="line"/>
      <point x="177.725" y="193" type="line"/>
    </contour>
    <contour>
      <point x="177.444" y="47" type="curve" smooth="yes"/>
      <point x="177.444" y="78.9434"/>
      <point x="203.668" y="105"/>
      <point x="236.444" y="105" type="curve" smooth="yes"/>
      <point x="268.325" y="105"/>
      <point x="294.444" y="78.8809"/>
      <point x="294.444" y="47" type="curve" smooth="yes"/>
      <point x="294.444" y="15.1191"/>
      <point x="268.325" y="-11"/>
      <point x="236.444" y="-11" type="curve" smooth="yes"/>
      <point x="203.669" y="-11"/>
      <point x="177.444" y="15.0566"/>
    </contour>
  </outline>
</glyph>
<glyph name="at" format="1">
  <advance width="856"/>
  <unicode hex="0040"/>
  <outline>
    <contour>
      <point x="451.399" y="-17.4502" type="curve" smooth="yes"/>
      <point x="563.981" y="-17.4502"/>
      <point x="660.396" y="19.2188"/>
      <point x="691.754" y="48.1445" type="curve" smooth="yes"/>
      <point x="693.765" y="49.999" type="line"/>
      <point x="696.5" y="49.999" type="line" smooth="yes"/>
      <point x="702.419" y="49.999"/>
      <point x="713.311" y="39.9795"/>
      <point x="713.311" y="33" type="curve" smooth="yes"/>
      <point x="713.311" y="28.7979"/>
      <point x="711.415" y="26.708"/>
      <point x="708.23" y="23.6572" type="curve" smooth="yes"/>
      <point x="673.528" y="-9.58887"/>
      <point x="592.616" y="-66.9473"/>
      <point x="451.399" y="-66.9473" type="curve" smooth="yes"/>
      <point x="324.798" y="-66.9473"/>
      <point x="59.1514" y="0.707031"/>
      <point x="59.1514" y="211.45" type="curve" smooth="yes"/>
      <point x="59.1514" y="382.321"/>
      <point x="266.029" y="509.947"/>
      <point x="482.1" y="509.947" type="curve" smooth="yes"/>
      <point x="626.573" y="509.947"/>
      <point x="798.848" y="419.238"/>
      <point x="798.848" y="256.25" type="curve" smooth="yes"/>
      <point x="798.848" y="143.527"/>
      <point x="687.462" y="60.1016"/>
      <point x="558.6" y="60.1016" type="curve" smooth="yes"/>
      <point x="527.784" y="60.1016"/>
      <point x="496.291" y="86.2852"/>
      <point x="493.151" y="91.4736" type="curve"/>
      <point x="482.087" y="87.7803"/>
      <point x="448.98" y="55.8496"/>
      <point x="393.6" y="55.8496" type="curve" smooth="yes"/>
      <point x="314.823" y="55.8496"/>
      <point x="237.3" y="107.071"/>
      <point x="237.3" y="189.95" type="curve" smooth="yes"/>
      <point x="237.3" y="345.497"/>
      <point x="372.2" y="389.599"/>
      <point x="472.301" y="389.599" type="curve" smooth="yes"/>
      <point x="502.412" y="389.599"/>
      <point x="540.307" y="370.75"/>
      <point x="546.899" y="370.75" type="curve" smooth="yes"/>
      <point x="553.601" y="370.75"/>
      <point x="561.639" y="376.998"/>
      <point x="564.684" y="380.553" type="curve" smooth="yes"/>
      <point x="566.797" y="383.021" type="line"/>
      <point x="570.046" y="383" type="line" smooth="yes"/>
      <point x="583.869" y="382.91"/>
      <point x="617.982" y="376.918"/>
      <point x="624.95" y="369.949" type="curve" smooth="yes"/>
      <point x="628.277" y="366.621" type="line"/>
      <point x="626.451" y="362.283" type="line" smooth="yes"/>
      <point x="620.817" y="344.151"/>
      <point x="616.536" y="326.735"/>
      <point x="610.723" y="293.678" type="curve"/>
      <point x="578.96" y="130.588" type="line"/>
      <point x="580.685" y="117.945"/>
      <point x="591.771" y="105.05"/>
      <point x="619.399" y="105.05" type="curve" smooth="yes"/>
      <point x="664.604" y="105.05"/>
      <point x="698.351" y="180.699"/>
      <point x="698.351" y="253.25" type="curve" smooth="yes"/>
      <point x="698.351" y="395.854"/>
      <point x="611.244" y="464.45"/>
      <point x="465.1" y="464.45" type="curve" smooth="yes"/>
      <point x="321.563" y="464.45"/>
      <point x="176.648" y="373.537"/>
      <point x="176.648" y="211.45" type="curve" smooth="yes"/>
      <point x="176.648" y="38.1885"/>
      <point x="341.271" y="-17.4502"/>
    </contour>
    <contour>
      <point x="356.8" y="198.85" type="curve" smooth="yes"/>
      <point x="356.8" y="163.005"/>
      <point x="371.482" y="109.95"/>
      <point x="421.399" y="109.95" type="curve" smooth="yes"/>
      <point x="457.292" y="109.95"/>
      <point x="478.241" y="134.639"/>
      <point x="481.567" y="158.516" type="curve" smooth="yes"/>
      <point x="481.61" y="158.825" type="line"/>
      <point x="514.095" y="299.027" type="line"/>
      <point x="513.539" y="322.727"/>
      <point x="495.84" y="344.45"/>
      <point x="462.5" y="344.45" type="curve" smooth="yes"/>
      <point x="415.412" y="344.45"/>
      <point x="356.8" y="277.481"/>
    </contour>
  </outline>
</glyph>
<glyph name="A" format="1">
  <advance width="835"/>
  <unicode hex="0041"/>
  <outline>
    <contour>
      <point x="775" y="15" type="move" smooth="yes"/>
    </contour>
    <contour>
      <point x="772" y="0" type="curve"/>
      <point x="531" y="0" type="line"/>
      <point x="531" y="0"/>
      <point x="527" y="6.24805"/>
      <point x="527" y="15" type="curve" smooth="yes"/>
      <point x="527" y="23"/>
      <point x="531" y="30"/>
      <point x="531" y="30" type="curve"/>
      <point x="538" y="30" type="line" smooth="yes"/>
      <point x="560" y="30"/>
      <point x="581.481" y="46.9727"/>
      <point x="581.481" y="68.3545" type="curve" smooth="yes"/>
      <point x="581.481" y="73.4668"/>
      <point x="581.161" y="79.0752"/>
      <point x="578.525" y="85.3125" type="curve" smooth="yes"/>
      <point x="483.86" y="295" type="line"/>
      <point x="303.412" y="295" type="line" smooth="yes"/>
      <point x="302.286" y="295"/>
      <point x="302.262" y="294.868"/>
      <point x="302.262" y="294.868" type="curve"/>
      <point x="302.069" y="294.694"/>
      <point x="301.338" y="293.593"/>
      <point x="300.287" y="291.204" type="curve" smooth="yes"/>
      <point x="213.447" y="90.0742" type="line"/>
      <point x="207.562" y="76.875"/>
      <point x="205.477" y="67.7002"/>
      <point x="205.477" y="61.5303" type="curve" smooth="yes"/>
      <point x="205.477" y="43.1162"/>
      <point x="220" y="30"/>
      <point x="240" y="30" type="curve" smooth="yes"/>
      <point x="247" y="30" type="line"/>
      <point x="247" y="30"/>
      <point x="251" y="23.752"/>
      <point x="251" y="15" type="curve" smooth="yes"/>
      <point x="251" y="7"/>
      <point x="247" y="0"/>
      <point x="247" y="0" type="curve"/>
      <point x="50" y="0" type="line"/>
      <point x="50" y="0"/>
      <point x="46" y="6.24805"/>
      <point x="46" y="15" type="curve" smooth="yes"/>
      <point x="46" y="23"/>
      <point x="50" y="30"/>
      <point x="50" y="30" type="curve"/>
      <point x="57" y="30" type="line" smooth="yes"/>
      <point x="88.5342" y="30"/>
      <point x="93.8418" y="52.5791"/>
      <point x="106.589" y="79.1318" type="curve"/>
      <point x="380.123" y="708.659" type="line"/>
      <point x="381.52" y="709.753" type="line" smooth="yes"/>
      <point x="395.367" y="720.6"/>
      <point x="418.04" y="718.687"/>
      <point x="429.423" y="728.493" type="curve" smooth="yes"/>
      <point x="437.179" y="735.309" type="line"/>
      <point x="726.399" y="59.5391" type="line"/>
      <point x="733.771" y="44.6084"/>
      <point x="746" y="30"/>
      <point x="765" y="30" type="curve" smooth="yes"/>
      <point x="772" y="30" type="line"/>
      <point x="772" y="30"/>
      <point x="775" y="23.752"/>
      <point x="775" y="15" type="curve" smooth="yes"/>
      <point x="775" y="7"/>
      <point x="772" y="0"/>
    </contour>
    <contour>
      <point x="394.107" y="514.541" type="line"/>
      <point x="322.264" y="348" type="line"/>
      <point x="462.952" y="348" type="line"/>
    </contour>
  </outline>
</glyph>
<glyph name="D" format="1">
  <advance width="844"/>
  <unicode hex="0044"/>
  <outline>
    <contour>
      <point x="64" y="701" type="curve"/>
      <point x="64" y="701"/>
      <point x="60" y="706"/>
      <point x="60" y="715" type="curve" smooth="yes"/>
      <point x="60" y="723"/>
      <point x="64" y="730"/>
      <point x="64" y="730" type="curve"/>
      <point x="112" y="730"/>
      <point x="186" y="730"/>
      <point x="238" y="730" type="curve" smooth="yes"/>
      <point x="294" y="731"/>
      <point x="324" y="731"/>
      <point x="378" y="731" type="curve" smooth="yes"/>
      <point x="579" y="731"/>
      <point x="767" y="606"/>
      <point x="767" y="363" type="curve" smooth="yes"/>
      <point x="767" y="124"/>
      <point x="599" y="-3"/>
      <point x="365" y="-3" type="curve" smooth="yes"/>
      <point x="321" y="-3"/>
      <point x="280" y="0"/>
      <point x="223" y="0" type="curve" smooth="yes"/>
      <point x="64" y="0" type="line"/>
      <point x="64" y="0"/>
      <point x="60" y="6"/>
      <point x="60" y="15" type="curve" smooth="yes"/>
      <point x="60" y="23"/>
      <point x="64" y="29"/>
      <point x="64" y="29" type="curve"/>
      <point x="71" y="29" type="line" smooth="yes"/>
      <point x="79" y="29"/>
      <point x="86" y="30"/>
      <point x="94" y="32" type="curve" smooth="yes"/>
      <point x="110" y="35"/>
      <point x="116" y="55"/>
      <point x="116" y="64" type="curve"/>
      <point x="118" y="181"/>
      <point x="119" y="285"/>
      <point x="119" y="401" type="curve" smooth="yes"/>
      <point x="119" y="493"/>
      <point x="118" y="574"/>
      <point x="116" y="667" type="curve"/>
      <point x="116" y="675"/>
      <point x="110" y="696"/>
      <point x="94" y="699" type="curve" smooth="yes"/>
      <point x="84" y="701"/>
      <point x="75" y="701"/>
    </contour>
    <contour>
      <point x="264" y="675" type="curve" smooth="yes"/>
      <point x="264" y="662" type="line" smooth="yes"/>
      <point x="264" y="457"/>
      <point x="263" y="67"/>
      <point x="263" y="67" type="curve"/>
      <point x="263" y="67"/>
      <point x="265" y="44"/>
      <point x="273" y="43" type="curve" smooth="yes"/>
      <point x="310" y="44"/>
      <point x="314" y="44"/>
      <point x="351" y="44" type="curve" smooth="yes"/>
      <point x="537" y="44"/>
      <point x="625" y="192"/>
      <point x="625" y="353" type="curve" smooth="yes"/>
      <point x="625" y="613"/>
      <point x="467" y="682"/>
      <point x="357" y="682" type="curve" smooth="yes"/>
      <point x="347" y="682"/>
      <point x="325" y="682"/>
      <point x="305" y="682" type="curve" smooth="yes"/>
      <point x="295" y="682"/>
      <point x="269" y="682"/>
      <point x="269" y="682" type="curve"/>
      <point x="265" y="682"/>
      <point x="264" y="678"/>
    </contour>
  </outline>
</glyph>
<glyph name="E" format="1">
  <advance width="645"/>
  <unicode hex="0045"/>
  <outline>
    <contour>
      <point x="67" y="701" type="curve"/>
      <point x="67" y="701"/>
      <point x="63" y="706"/>
      <point x="63" y="715" type="curve" smooth="yes"/>
      <point x="63" y="723"/>
      <point x="67" y="730"/>
      <point x="67" y="730" type="curve"/>
      <point x="137" y="730"/>
      <point x="209" y="730"/>
      <point x="287" y="730" type="curve" smooth="yes"/>
      <point x="525" y="730" type="line"/>
      <point x="543" y="565" type="line"/>
      <point x="514" y="567" type="line"/>
      <point x="501" y="629"/>
      <point x="478" y="665"/>
      <point x="414" y="684" type="curve" smooth="yes"/>
      <point x="381" y="694"/>
      <point x="359" y="695"/>
      <point x="329" y="695" type="curve" smooth="yes"/>
      <point x="308" y="695"/>
      <point x="301" y="694"/>
      <point x="280" y="692" type="curve" smooth="yes"/>
      <point x="265" y="690"/>
      <point x="258" y="671"/>
      <point x="258" y="664" type="curve" smooth="yes"/>
      <point x="254" y="419" type="line"/>
      <point x="286" y="417"/>
      <point x="317" y="415"/>
      <point x="348" y="415" type="curve" smooth="yes"/>
      <point x="386" y="415"/>
      <point x="395" y="416"/>
      <point x="426" y="421" type="curve"/>
      <point x="446" y="427"/>
      <point x="452" y="450"/>
      <point x="454" y="474" type="curve"/>
      <point x="471" y="474" type="line"/>
      <point x="471" y="315" type="line"/>
      <point x="454" y="315" type="line"/>
      <point x="450" y="339"/>
      <point x="445" y="363"/>
      <point x="422" y="369" type="curve"/>
      <point x="390" y="374"/>
      <point x="381" y="375"/>
      <point x="346" y="375" type="curve" smooth="yes"/>
      <point x="314" y="375"/>
      <point x="283" y="372"/>
      <point x="254" y="370" type="curve"/>
      <point x="258" y="71" type="line"/>
      <point x="258" y="61"/>
      <point x="264" y="40"/>
      <point x="281" y="38" type="curve" smooth="yes"/>
      <point x="300" y="36"/>
      <point x="311" y="35"/>
      <point x="329" y="35" type="curve" smooth="yes"/>
      <point x="395" y="35"/>
      <point x="407" y="36"/>
      <point x="451" y="46" type="curve" smooth="yes"/>
      <point x="513" y="61"/>
      <point x="535" y="101"/>
      <point x="548" y="163" type="curve"/>
      <point x="578" y="165" type="line"/>
      <point x="559" y="0" type="line"/>
      <point x="67" y="0" type="line"/>
      <point x="67" y="0"/>
      <point x="63" y="6"/>
      <point x="63" y="15" type="curve" smooth="yes"/>
      <point x="63" y="23"/>
      <point x="67" y="31"/>
      <point x="67" y="31" type="curve"/>
      <point x="80" y="31"/>
      <point x="91.3242" y="31.9961"/>
      <point x="102" y="36" type="curve" smooth="yes"/>
      <point x="118" y="42"/>
      <point x="119" y="56"/>
      <point x="119" y="66" type="curve" smooth="yes"/>
      <point x="121" y="83"/>
      <point x="121" y="249"/>
      <point x="121" y="410" type="curve" smooth="yes"/>
      <point x="121" y="535.964"/>
      <point x="119" y="630.866"/>
      <point x="119" y="656" type="curve"/>
      <point x="119" y="666" type="line" smooth="yes"/>
      <point x="119" y="675"/>
      <point x="112" y="696"/>
      <point x="96" y="699" type="curve" smooth="yes"/>
      <point x="86" y="701"/>
      <point x="78" y="701"/>
    </contour>
  </outline>
</glyph>
<glyph name="H" format="1">
  <advance width="857"/>
  <unicode hex="0048"/>
  <outline>
    <contour>
      <point x="315.006" y="730.305" type="line"/>
      <point x="315.006" y="730.305"/>
      <point x="319" y="724.752"/>
      <point x="319" y="716" type="curve" smooth="yes"/>
      <point x="319" y="708"/>
      <point x="315.006" y="701"/>
      <point x="315.006" y="701" type="curve"/>
      <point x="304.2" y="700.211"/>
      <point x="296.722" y="699.915"/>
      <point x="287.075" y="698.005" type="curve" smooth="yes"/>
      <point x="270.777" y="694.777"/>
      <point x="262.815" y="676.241"/>
      <point x="262.815" y="666.264" type="curve" smooth="yes"/>
      <point x="262.815" y="611.204"/>
      <point x="262.659" y="567.139"/>
      <point x="262.659" y="512.099" type="curve" smooth="yes"/>
      <point x="262.659" y="484.516"/>
      <point x="262.696" y="452.692"/>
      <point x="262.812" y="427.391" type="curve" smooth="yes"/>
      <point x="262.825" y="426.176"/>
      <point x="266.257" y="425.777"/>
      <point x="268.54" y="425.592" type="curve" smooth="yes"/>
      <point x="317.721" y="425.038"/>
      <point x="354.282" y="424.358"/>
      <point x="418.822" y="424.358" type="curve" smooth="yes"/>
      <point x="486.63" y="424.358"/>
      <point x="533.234" y="425.104"/>
      <point x="587.216" y="425.675" type="curve"/>
      <point x="590" y="425.675"/>
      <point x="591.749" y="427.427"/>
      <point x="591.749" y="427.427" type="curve"/>
      <point x="591.749" y="666.554" type="line"/>
      <point x="591.637" y="676.531"/>
      <point x="583.654" y="695.646"/>
      <point x="567.374" y="698.867" type="curve" smooth="yes"/>
      <point x="557.725" y="700.776"/>
      <point x="551.247" y="701.072"/>
      <point x="539.392" y="701.305" type="curve"/>
      <point x="539.392" y="701.305"/>
      <point x="535.392" y="707.553"/>
      <point x="535.392" y="716.305" type="curve" smooth="yes"/>
      <point x="535.392" y="724.305"/>
      <point x="539.392" y="730.305"/>
      <point x="539.392" y="730.305" type="curve"/>
      <point x="791.397" y="730.609" type="line"/>
      <point x="791.397" y="730.609"/>
      <point x="795.392" y="725.057"/>
      <point x="795.392" y="716.305" type="curve" smooth="yes"/>
      <point x="795.392" y="708.305"/>
      <point x="791.397" y="701.305"/>
      <point x="791.397" y="701.305" type="curve"/>
      <point x="781.028" y="700.965"/>
      <point x="773.556" y="700.67"/>
      <point x="763.908" y="698.751" type="curve" smooth="yes"/>
      <point x="747.732" y="695.536"/>
      <point x="738.729" y="677.511"/>
      <point x="738.314" y="667.085" type="curve"/>
      <point x="736.284" y="575.074"/>
      <point x="735.447" y="492.667"/>
      <point x="735.447" y="400.322" type="curve" smooth="yes"/>
      <point x="735.447" y="284.806"/>
      <point x="736.655" y="179.887"/>
      <point x="738.315" y="64.3232" type="curve"/>
      <point x="738.733" y="54.8535"/>
      <point x="747.748" y="34.7852"/>
      <point x="763.547" y="31.6494" type="curve" smooth="yes"/>
      <point x="773.197" y="29.7344"/>
      <point x="780.668" y="29.4346"/>
      <point x="791.397" y="29.6094" type="curve"/>
      <point x="791.397" y="29.6094"/>
      <point x="795.392" y="24.0566"/>
      <point x="795.392" y="15.3047" type="curve" smooth="yes"/>
      <point x="795.392" y="7.30469"/>
      <point x="791.397" y="0.304688"/>
      <point x="791.397" y="0.304688" type="curve"/>
      <point x="539.392" y="0.304688" type="line"/>
      <point x="539.392" y="0.304688"/>
      <point x="535.392" y="6.55273"/>
      <point x="535.392" y="15.3047" type="curve" smooth="yes"/>
      <point x="535.392" y="23.3047"/>
      <point x="539.392" y="29.3047"/>
      <point x="539.392" y="29.3047" type="curve"/>
      <point x="550.248" y="29.4473"/>
      <point x="557.728" y="29.7451"/>
      <point x="567.373" y="31.6631" type="curve" smooth="yes"/>
      <point x="583.286" y="34.8271"/>
      <point x="591.507" y="53.7686"/>
      <point x="591.749" y="62.8535" type="curve"/>
      <point x="591.749" y="371.38" type="line" smooth="yes"/>
      <point x="591.749" y="372.589"/>
      <point x="589.405" y="372.875"/>
      <point x="586.532" y="373.129" type="curve" smooth="yes"/>
      <point x="532.713" y="373.696"/>
      <point x="485.694" y="374.446"/>
      <point x="418.822" y="374.446" type="curve" smooth="yes"/>
      <point x="354.983" y="374.446"/>
      <point x="318.958" y="373.771"/>
      <point x="269.189" y="373.211" type="curve" smooth="yes"/>
      <point x="266.693" y="373.047"/>
      <point x="262.849" y="372.74"/>
      <point x="262.811" y="371.342" type="curve" smooth="yes"/>
      <point x="262.539" y="336.003"/>
      <point x="262.449" y="295.555"/>
      <point x="262.449" y="260.051" type="curve" smooth="yes"/>
      <point x="262.449" y="189.863"/>
      <point x="262.804" y="133.09"/>
      <point x="262.807" y="63.0869" type="curve"/>
      <point x="263.595" y="53.292"/>
      <point x="272.659" y="34.7139"/>
      <point x="288.024" y="31.6631" type="curve" smooth="yes"/>
      <point x="297.674" y="29.7471"/>
      <point x="304.152" y="29.752"/>
      <point x="315.006" y="29.3047" type="curve"/>
      <point x="315.006" y="29.3047"/>
      <point x="319" y="23.752"/>
      <point x="319" y="15" type="curve" smooth="yes"/>
      <point x="319" y="7"/>
      <point x="315.006" y="0"/>
      <point x="315.006" y="0" type="curve"/>
      <point x="64" y="0" type="line"/>
      <point x="64" y="0"/>
      <point x="60" y="6.24805"/>
      <point x="60" y="15" type="curve" smooth="yes"/>
      <point x="60" y="23"/>
      <point x="64" y="29"/>
      <point x="64" y="29" type="curve"/>
      <point x="74.8545" y="29.4346"/>
      <point x="82.335" y="29.7305"/>
      <point x="91.9805" y="31.6494" type="curve" smooth="yes"/>
      <point x="108.218" y="34.877"/>
      <point x="116.24" y="54.7246"/>
      <point x="116.24" y="64.5225" type="curve"/>
      <point x="117.908" y="181.281"/>
      <point x="119.115" y="287.773"/>
      <point x="119.115" y="404.247" type="curve" smooth="yes"/>
      <point x="119.115" y="494.9"/>
      <point x="118.271" y="575.296"/>
      <point x="116.258" y="665.847" type="curve"/>
      <point x="116.247" y="675.356"/>
      <point x="108.152" y="695.541"/>
      <point x="91.9844" y="698.751" type="curve" smooth="yes"/>
      <point x="82.334" y="700.668"/>
      <point x="74.8613" y="700.965"/>
      <point x="64" y="701" type="curve"/>
      <point x="64" y="701"/>
      <point x="60" y="707.248"/>
      <point x="60" y="716" type="curve" smooth="yes"/>
      <point x="60" y="724"/>
      <point x="64" y="730"/>
      <point x="64" y="730" type="curve"/>
    </contour>
  </outline>
</glyph>
<glyph name="K" format="1">
  <advance width="680"/>
  <unicode hex="004B"/>
  <outline>
    <contour>
      <point x="633.264" y="29" type="line"/>
      <point x="633.264" y="29"/>
      <point x="637.392" y="24.0566"/>
      <point x="637.392" y="15.3047" type="curve" smooth="yes"/>
      <point x="637.392" y="7.30469"/>
      <point x="634" y="0"/>
      <point x="634" y="0" type="curve"/>
      <point x="409" y="0" type="line"/>
      <point x="409" y="0"/>
      <point x="404.392" y="6.55273"/>
      <point x="404.392" y="15.3047" type="curve" smooth="yes"/>
      <point x="404.392" y="23.3047"/>
      <point x="409.264" y="29"/>
      <point x="409.264" y="29" type="curve"/>
      <point x="430.924" y="29"/>
      <point x="436.14" y="43.5068"/>
      <point x="436.14" y="56.4512" type="curve" smooth="yes"/>
      <point x="436.14" y="65.5928"/>
      <point x="427.424" y="81.1133"/>
      <point x="417.462" y="95" type="curve" smooth="yes"/>
      <point x="339.264" y="204"/>
      <point x="264.638" y="297.649"/>
      <point x="249" y="320" type="curve"/>
      <point x="241.971" y="313.261"/>
      <point x="244.256" y="314.219"/>
      <point x="237.317" y="310.856" type="curve"/>
      <point x="238.264" y="66.0723" type="line" smooth="yes"/>
      <point x="238.466" y="46.6611"/>
      <point x="259.459" y="30.249"/>
      <point x="282.264" y="29" type="curve" smooth="yes"/>
      <point x="289.397" y="28.6094" type="line"/>
      <point x="289.397" y="28.6094"/>
      <point x="293.392" y="24.0566"/>
      <point x="293.392" y="15.3047" type="curve" smooth="yes"/>
      <point x="293.392" y="7.30469"/>
      <point x="290" y="0"/>
      <point x="290" y="0" type="curve"/>
      <point x="39" y="0" type="line"/>
      <point x="39" y="0"/>
      <point x="34.3916" y="6.55273"/>
      <point x="34.3916" y="15.3047" type="curve" smooth="yes"/>
      <point x="34.3916" y="23.3047"/>
      <point x="39" y="29"/>
      <point x="39" y="29" type="curve"/>
      <point x="46.2637" y="29" type="line" smooth="yes"/>
      <point x="67.5781" y="29"/>
      <point x="91.2637" y="46.8633"/>
      <point x="91.2637" y="65.5215" type="curve" smooth="yes"/>
      <point x="93.0986" y="181.29"/>
      <point x="93.4268" y="286.765"/>
      <point x="93.4268" y="402.222" type="curve" smooth="yes"/>
      <point x="93.4268" y="493.436"/>
      <point x="92.5" y="574.337"/>
      <point x="91.2637" y="665.43" type="curve" smooth="yes"/>
      <point x="91.0234" y="683.164"/>
      <point x="70" y="701"/>
      <point x="46.2637" y="702" type="curve" smooth="yes"/>
      <point x="40.3916" y="702.305" type="line"/>
      <point x="40.3916" y="702.305"/>
      <point x="36.3916" y="707.553"/>
      <point x="36.3916" y="716.305" type="curve" smooth="yes"/>
      <point x="36.3916" y="724.305"/>
      <point x="39" y="730"/>
      <point x="39" y="730" type="curve"/>
      <point x="290" y="730" type="line"/>
      <point x="290" y="730"/>
      <point x="294.392" y="725.057"/>
      <point x="294.392" y="716.305" type="curve" smooth="yes"/>
      <point x="294.392" y="708.305"/>
      <point x="290.397" y="702.305"/>
      <point x="290.397" y="702.305" type="curve"/>
      <point x="283.264" y="702" type="line" smooth="yes"/>
      <point x="259" y="701"/>
      <point x="238.682" y="689.294"/>
      <point x="238.264" y="665.952" type="curve" smooth="yes"/>
      <point x="234.404" y="450.321" type="line"/>
      <point x="249.884" y="457.572"/>
      <point x="250.693" y="455.257"/>
      <point x="273" y="485" type="curve"/>
      <point x="406.692" y="643.238" type="line" smooth="yes"/>
      <point x="421.043" y="662.099"/>
      <point x="425.243" y="673.513"/>
      <point x="425.243" y="678.752" type="curve" smooth="yes"/>
      <point x="425.243" y="689.8"/>
      <point x="398.608" y="701.695"/>
      <point x="387.872" y="701.695" type="curve" smooth="yes"/>
      <point x="381" y="702" type="line"/>
      <point x="381" y="702"/>
      <point x="376.392" y="706.553"/>
      <point x="376.392" y="715.305" type="curve" smooth="yes"/>
      <point x="376.392" y="723.305"/>
      <point x="381" y="730"/>
      <point x="381" y="730" type="curve"/>
      <point x="592" y="730" type="line"/>
      <point x="592" y="730"/>
      <point x="596.392" y="724.057"/>
      <point x="596.392" y="715.305" type="curve" smooth="yes"/>
      <point x="596.392" y="707.305"/>
      <point x="592" y="702"/>
      <point x="592" y="702" type="curve"/>
      <point x="581.866" y="701.695" type="line" smooth="yes"/>
      <point x="550.603" y="700.695"/>
      <point x="543.717" y="680.767"/>
      <point x="524.881" y="657.502" type="curve" smooth="yes"/>
      <point x="330.235" y="412.736" type="line"/>
      <point x="345.575" y="390.591" type="line"/>
      <point x="352.696" y="382.428" type="line" smooth="yes"/>
      <point x="450.12" y="246.273"/>
      <point x="539.198" y="119.085"/>
      <point x="582.94" y="59.6836" type="curve"/>
      <point x="596.264" y="42"/>
      <point x="616" y="29"/>
      <point x="626.264" y="29" type="curve" smooth="yes"/>
    </contour>
  </outline>
</glyph>
<glyph name="L" format="1">
  <advance width="647"/>
  <unicode hex="004C"/>
  <outline>
    <contour>
      <point x="318.047" y="730" type="line"/>
      <point x="318.047" y="730"/>
      <point x="321.392" y="725.057"/>
      <point x="321.392" y="716.305" type="curve" smooth="yes"/>
      <point x="321.392" y="708.305"/>
      <point x="318" y="701"/>
      <point x="318" y="701" type="curve"/>
      <point x="311.137" y="701.048" type="line" smooth="yes"/>
      <point x="294" y="701"/>
      <point x="266.101" y="686.981"/>
      <point x="265.824" y="665.888" type="curve" smooth="yes"/>
      <point x="263.808" y="574.193"/>
      <point x="262.961" y="492.501"/>
      <point x="262.961" y="400.639" type="curve" smooth="yes"/>
      <point x="264.662" y="286.884"/>
      <point x="263.891" y="183.121"/>
      <point x="265.663" y="69.085" type="curve"/>
      <point x="265.663" y="59.2803"/>
      <point x="271.516" y="40.1719"/>
      <point x="288.52" y="38.2793" type="curve" smooth="yes"/>
      <point x="309.509" y="35.9424"/>
      <point x="319.854" y="35"/>
      <point x="340.623" y="35" type="curve"/>
      <point x="405.279" y="35.3428"/>
      <point x="407.366" y="35.9268"/>
      <point x="450.993" y="45.999" type="curve" smooth="yes"/>
      <point x="510.142" y="60.2969"/>
      <point x="535.016" y="98.8965"/>
      <point x="547.146" y="157.434" type="curve" smooth="yes"/>
      <point x="548.23" y="162.671" type="line"/>
      <point x="577.963" y="164.504" type="line"/>
      <point x="559.201" y="0" type="line"/>
      <point x="66" y="0" type="line"/>
      <point x="66" y="0"/>
      <point x="61.3916" y="6.55273"/>
      <point x="61.3916" y="15.3047" type="curve" smooth="yes"/>
      <point x="61.3916" y="23.3047"/>
      <point x="66" y="29"/>
      <point x="66" y="29" type="curve"/>
      <point x="73.9248" y="29.3838" type="line" smooth="yes"/>
      <point x="99" y="31"/>
      <point x="119.241" y="46.7422"/>
      <point x="119.241" y="67.5234" type="curve" smooth="yes"/>
      <point x="120.899" y="183.628"/>
      <point x="121.116" y="286.467"/>
      <point x="121.116" y="402.288" type="curve" smooth="yes"/>
      <point x="121.116" y="493.949"/>
      <point x="120.301" y="573.908"/>
      <point x="119.244" y="666.471" type="curve" smooth="yes"/>
      <point x="119.049" y="683.619"/>
      <point x="97" y="701"/>
      <point x="73.9102" y="701.021" type="curve" smooth="yes"/>
      <point x="67" y="701" type="line"/>
      <point x="67" y="701"/>
      <point x="62.3916" y="707.553"/>
      <point x="62.3916" y="716.305" type="curve" smooth="yes"/>
      <point x="62.3916" y="724.305"/>
      <point x="67" y="730"/>
      <point x="67" y="730" type="curve"/>
    </contour>
  </outline>
</glyph>
<glyph name="M" format="1">
  <advance width="913"/>
  <unicode hex="004D"/>
  <outline>
    <contour>
      <point x="838.129" y="729.998" type="line"/>
      <point x="838.129" y="729.998"/>
      <point x="841.392" y="725.057"/>
      <point x="841.392" y="716.305" type="curve" smooth="yes"/>
      <point x="841.392" y="708.305"/>
      <point x="838" y="701"/>
      <point x="838" y="701" type="curve"/>
      <point x="831.214" y="701.021" type="line" smooth="yes"/>
      <point x="808" y="701"/>
      <point x="786.004" y="685.323"/>
      <point x="785.907" y="666.873" type="curve" smooth="yes"/>
      <point x="785.097" y="605.802"/>
      <point x="782.677" y="555.087"/>
      <point x="782.677" y="494.521" type="curve" smooth="yes"/>
      <point x="782.677" y="451.723"/>
      <point x="782.608" y="409.123"/>
      <point x="782.608" y="366.664" type="curve" smooth="yes"/>
      <point x="782.608" y="262.076"/>
      <point x="783.024" y="168.337"/>
      <point x="785.909" y="64.5742" type="curve" smooth="yes"/>
      <point x="786.295" y="46.1377"/>
      <point x="807.972" y="29.6699"/>
      <point x="831.219" y="29.3838" type="curve" smooth="yes"/>
      <point x="838.132" y="29.2988" type="line"/>
      <point x="838.132" y="29.2988"/>
      <point x="841.392" y="24.0566"/>
      <point x="841.392" y="15.3047" type="curve" smooth="yes"/>
      <point x="841.392" y="7.30469"/>
      <point x="838" y="0"/>
      <point x="838" y="0" type="curve"/>
      <point x="587" y="0" type="line"/>
      <point x="587" y="0"/>
      <point x="582.392" y="6.55273"/>
      <point x="582.392" y="15.3047" type="curve" smooth="yes"/>
      <point x="582.392" y="23.3047"/>
      <point x="587" y="30"/>
      <point x="587" y="30" type="curve"/>
      <point x="594.988" y="29.9463" type="line" smooth="yes"/>
      <point x="619" y="30"/>
      <point x="639.048" y="46.873"/>
      <point x="639.334" y="65.626" type="curve" smooth="yes"/>
      <point x="640.313" y="129.847"/>
      <point x="641.725" y="184.042"/>
      <point x="641.725" y="248" type="curve" smooth="yes"/>
      <point x="641.725" y="328.926"/>
      <point x="641.732" y="357.956"/>
      <point x="641.732" y="440" type="curve" smooth="yes"/>
      <point x="641.732" y="471.796"/>
      <point x="641.666" y="503.654"/>
      <point x="641.495" y="534.321" type="curve"/>
      <point x="445.306" y="168.829" type="line"/>
      <point x="442.088" y="162.671"/>
      <point x="432.384" y="148.276"/>
      <point x="421.993" y="148.276" type="curve" smooth="yes"/>
      <point x="414.794" y="148.276"/>
      <point x="409.693" y="153.756"/>
      <point x="406.13" y="160.999" type="curve" smooth="yes"/>
      <point x="406.13" y="160.999"/>
      <point x="261.477" y="445.632"/>
      <point x="212.151" y="548.842" type="curve"/>
      <point x="194.093" y="65.0693" type="line"/>
      <point x="195.827" y="46.4072"/>
      <point x="215.197" y="31.1064"/>
      <point x="239.378" y="29.9463" type="curve" smooth="yes"/>
      <point x="246.397" y="29.6094" type="line"/>
      <point x="246.397" y="29.6094"/>
      <point x="250.392" y="24.0566"/>
      <point x="250.392" y="15.3047" type="curve" smooth="yes"/>
      <point x="250.392" y="7.30469"/>
      <point x="247" y="0"/>
      <point x="247" y="0" type="curve"/>
      <point x="47" y="0" type="line"/>
      <point x="47" y="0"/>
      <point x="42.3916" y="6.55273"/>
      <point x="42.3916" y="15.3047" type="curve" smooth="yes"/>
      <point x="42.3916" y="23.3047"/>
      <point x="48" y="30"/>
      <point x="48" y="30" type="curve"/>
      <point x="55.1846" y="30.3838" type="line" smooth="yes"/>
      <point x="80" y="32"/>
      <point x="98.7061" y="46.1543"/>
      <point x="99.5234" y="66.6875" type="curve" smooth="yes"/>
      <point x="107.642" y="270.613"/>
      <point x="114.75" y="456.241"/>
      <point x="119.536" y="663.082" type="curve"/>
      <point x="119.538" y="663.361"/>
      <point x="119.538" y="663.789"/>
      <point x="119.538" y="664.078" type="curve" smooth="yes"/>
      <point x="119.538" y="683.176"/>
      <point x="98" y="701"/>
      <point x="74.1875" y="701.022" type="curve" smooth="yes"/>
      <point x="67" y="701" type="line"/>
      <point x="67" y="701"/>
      <point x="62.3916" y="707.553"/>
      <point x="62.3916" y="716.305" type="curve" smooth="yes"/>
      <point x="62.3916" y="724.305"/>
      <point x="67" y="730"/>
      <point x="67" y="730" type="curve"/>
      <point x="257.641" y="730" type="line"/>
      <point x="453.707" y="342.253" type="line"/>
      <point x="654.948" y="729.998" type="line"/>
    </contour>
  </outline>
</glyph>
<glyph name="N" format="1">
  <advance width="881"/>
  <unicode hex="004E"/>
  <outline>
    <contour>
      <point x="54" y="0" type="line"/>
      <point x="54" y="0"/>
      <point x="49.3916" y="6.55273"/>
      <point x="49.3916" y="15.3047" type="curve" smooth="yes"/>
      <point x="49.3916" y="23.3047"/>
      <point x="54" y="29"/>
      <point x="54" y="29" type="curve"/>
      <point x="60.9062" y="29.3838" type="line" smooth="yes"/>
      <point x="86" y="31"/>
      <point x="106.24" y="46.2266"/>
      <point x="106.24" y="66.4551" type="curve" smooth="yes"/>
      <point x="107.873" y="398.75" type="line"/>
      <point x="106.258" y="663.939" type="line" smooth="yes"/>
      <point x="105.995" y="683.906"/>
      <point x="86" y="702"/>
      <point x="60.9092" y="702.022" type="curve" smooth="yes"/>
      <point x="55" y="702" type="line"/>
      <point x="55" y="702"/>
      <point x="50.3916" y="707.553"/>
      <point x="50.3916" y="716.305" type="curve" smooth="yes"/>
      <point x="50.3916" y="724.305"/>
      <point x="55" y="730"/>
      <point x="55" y="730" type="curve"/>
      <point x="238.133" y="730" type="line"/>
      <point x="672.066" y="200.81" type="line"/>
      <point x="672.066" y="370.894"/>
      <point x="671.751" y="492.72"/>
      <point x="671.751" y="665.009" type="curve" smooth="yes"/>
      <point x="671.751" y="683.828"/>
      <point x="646.948" y="699.936"/>
      <point x="626.299" y="701.461" type="curve" smooth="yes"/>
      <point x="619" y="702" type="line"/>
      <point x="619" y="702"/>
      <point x="614.392" y="707.553"/>
      <point x="614.392" y="716.305" type="curve" smooth="yes"/>
      <point x="614.392" y="724.305"/>
      <point x="619" y="730"/>
      <point x="619" y="730" type="curve"/>
      <point x="821" y="730" type="line"/>
      <point x="821" y="730"/>
      <point x="824.392" y="725.057"/>
      <point x="824.392" y="716.305" type="curve" smooth="yes"/>
      <point x="824.392" y="708.305"/>
      <point x="821" y="702"/>
      <point x="821" y="702" type="curve"/>
      <point x="813.979" y="702.016" type="line" smooth="yes"/>
      <point x="791" y="702"/>
      <point x="769.543" y="684.438"/>
      <point x="768.361" y="666.905" type="curve" smooth="yes"/>
      <point x="766.477" y="574.365"/>
      <point x="765.752" y="492.911"/>
      <point x="765.752" y="400.251" type="curve" smooth="yes"/>
      <point x="765.752" y="269.146"/>
      <point x="767.233" y="144.062"/>
      <point x="769" y="12.748" type="curve"/>
      <point x="769" y="-0.271484"/>
      <point x="756.65" y="-8.99023"/>
      <point x="744" y="-8.99023" type="curve" smooth="yes"/>
      <point x="734.509" y="-8.99023"/>
      <point x="722.627" y="-4.62695"/>
      <point x="720" y="-2" type="curve" smooth="yes"/>
      <point x="714" y="4" type="line" smooth="yes"/>
      <point x="530.468" y="210.897"/>
      <point x="388.653" y="404.021"/>
      <point x="202.829" y="607.279" type="curve"/>
      <point x="202.79" y="557.426"/>
      <point x="201.778" y="510.642"/>
      <point x="201.778" y="462" type="curve" smooth="yes"/>
      <point x="201.778" y="361.999"/>
      <point x="201.832" y="272.059"/>
      <point x="201.832" y="172" type="curve" smooth="yes"/>
      <point x="201.832" y="136.437"/>
      <point x="202.825" y="100.423"/>
      <point x="203.807" y="65.123" type="curve" smooth="yes"/>
      <point x="204.317" y="46.7568"/>
      <point x="225" y="30"/>
      <point x="249.038" y="28.9463" type="curve" smooth="yes"/>
      <point x="256.397" y="28.6094" type="line"/>
      <point x="256.397" y="28.6094"/>
      <point x="260.392" y="24.0566"/>
      <point x="260.392" y="15.3047" type="curve" smooth="yes"/>
      <point x="260.392" y="7.30469"/>
      <point x="257" y="0"/>
      <point x="257" y="0" type="curve"/>
    </contour>
  </outline>
</glyph>
<glyph name="P" format="1">
  <advance width="618"/>
  <unicode hex="0050"/>
  <outline>
    <contour>
      <point x="287.397" y="28.6094" type="line"/>
      <point x="287.397" y="28.6094"/>
      <point x="291.392" y="24.0566"/>
      <point x="291.392" y="15.3047" type="curve" smooth="yes"/>
      <point x="291.392" y="7.30469"/>
      <point x="288" y="0"/>
      <point x="288" y="0" type="curve"/>
      <point x="37" y="0" type="line"/>
      <point x="37" y="0"/>
      <point x="32.3916" y="6.55273"/>
      <point x="32.3916" y="15.3047" type="curve" smooth="yes"/>
      <point x="32.3916" y="23.3047"/>
      <point x="37" y="29"/>
      <point x="37" y="29" type="curve"/>
      <point x="44.0381" y="29.3838" type="line" smooth="yes"/>
      <point x="67" y="31"/>
      <point x="89.373" y="46.6104"/>
      <point x="89.373" y="63.8066" type="curve" smooth="yes"/>
      <point x="90.9727" y="180.92"/>
      <point x="91.2793" y="284.685"/>
      <point x="91.2793" y="400.326" type="curve" smooth="yes"/>
      <point x="91.2793" y="487.4"/>
      <point x="89.4941" y="572.247"/>
      <point x="89.4941" y="659.177" type="curve" smooth="yes"/>
      <point x="89.4941" y="687.557"/>
      <point x="66" y="701"/>
      <point x="45.042" y="701.021" type="curve" smooth="yes"/>
      <point x="37" y="701" type="line"/>
      <point x="37" y="701"/>
      <point x="32.3916" y="707.553"/>
      <point x="32.3916" y="716.305" type="curve" smooth="yes"/>
      <point x="32.3916" y="724.305"/>
      <point x="37" y="730"/>
      <point x="37" y="730" type="curve"/>
      <point x="297.759" y="732" type="line" smooth="yes"/>
      <point x="477.401" y="732"/>
      <point x="572.388" y="671.053"/>
      <point x="572.388" y="503.468" type="curve" smooth="yes"/>
      <point x="572.388" y="347.451"/>
      <point x="460.828" y="274.9"/>
      <point x="320.138" y="274.9" type="curve" smooth="yes"/>
      <point x="307.391" y="274.9"/>
      <point x="295.77" y="275.512"/>
      <point x="283.395" y="276.711" type="curve" smooth="yes"/>
      <point x="269.357" y="278.071"/>
      <point x="259.2" y="290.041"/>
      <point x="259.2" y="303" type="curve" smooth="yes"/>
      <point x="259.2" y="314.531"/>
      <point x="279.039" y="328"/>
      <point x="293.347" y="328" type="curve" smooth="yes"/>
      <point x="386.851" y="328"/>
      <point x="449.653" y="377.769"/>
      <point x="449.653" y="515.354" type="curve" smooth="yes"/>
      <point x="449.653" y="651.675"/>
      <point x="352.022" y="689.888"/>
      <point x="270.883" y="689.888" type="curve" smooth="yes"/>
      <point x="236.637" y="689.888" type="line"/>
      <point x="234.459" y="590.974"/>
      <point x="233.525" y="494.22"/>
      <point x="233.525" y="395.965" type="curve" smooth="yes"/>
      <point x="233.525" y="281.894"/>
      <point x="234.66" y="177.737"/>
      <point x="236.505" y="63.4375" type="curve" smooth="yes"/>
      <point x="236.702" y="45.7402"/>
      <point x="259" y="32"/>
      <point x="280.249" y="29.3506" type="curve" smooth="yes"/>
    </contour>
  </outline>
</glyph>
<glyph name="Q" format="1">
  <advance width="878"/>
  <unicode hex="0051"/>
  <outline>
    <contour>
      <point x="428.982" y="683.77" type="curve" smooth="yes"/>
      <point x="226.664" y="683.77"/>
      <point x="218.326" y="438.814"/>
      <point x="218.326" y="380.297" type="curve" smooth="yes"/>
      <point x="218.326" y="71.1904"/>
      <point x="391.543" y="33.667"/>
      <point x="446.182" y="33.667" type="curve" smooth="yes"/>
      <point x="557.46" y="33.667"/>
      <point x="662.246" y="118.61"/>
      <point x="662.246" y="372.699" type="curve" smooth="yes"/>
      <point x="662.246" y="517.134"/>
      <point x="612.104" y="683.77"/>
    </contour>
    <contour>
      <point x="436.303" y="732.809" type="curve" smooth="yes"/>
      <point x="637.238" y="732.809"/>
      <point x="813.572" y="605.609"/>
      <point x="813.572" y="356.808" type="curve" smooth="yes"/>
      <point x="813.572" y="136.992"/>
      <point x="635.598" y="5.99902"/>
      <point x="479.734" y="-14.2607" type="curve"/>
      <point x="488.951" y="-64.3271"/>
      <point x="530.965" y="-91.6182"/>
      <point x="639.803" y="-91.6182" type="curve" smooth="yes"/>
      <point x="647.592" y="-91.6182"/>
      <point x="655.706" y="-91.416"/>
      <point x="664.154" y="-91.0088" type="curve" smooth="yes"/>
      <point x="670.195" y="-90.7178" type="line"/>
      <point x="681.969" y="-147.42" type="line"/>
      <point x="673.76" y="-148.139" type="line" smooth="yes"/>
      <point x="645.898" y="-150.578"/>
      <point x="619.797" y="-151.864"/>
      <point x="595.476" y="-151.864" type="curve" smooth="yes"/>
      <point x="460.456" y="-151.864"/>
      <point x="374.689" y="-113.265"/>
      <point x="361.656" y="-9.45996" type="curve"/>
      <point x="235.992" y="14.2891"/>
      <point x="65" y="102.646"/>
      <point x="65" y="348.02" type="curve" smooth="yes"/>
      <point x="65" y="597.639"/>
      <point x="239.485" y="732.809"/>
    </contour>
  </outline>
</glyph>
<glyph name="R" format="1">
  <advance width="723"/>
  <unicode hex="0052"/>
  <outline>
    <contour>
      <point x="670" y="0" type="curve"/>
      <point x="527" y="0" type="line" smooth="yes"/>
      <point x="476.713" y="0"/>
      <point x="450.397" y="59.7803"/>
      <point x="438.153" y="73.4678" type="curve" smooth="yes"/>
      <point x="438.153" y="73.4678"/>
      <point x="283.174" y="295.288"/>
      <point x="270.871" y="313.006" type="curve"/>
      <point x="265.341" y="313.038"/>
      <point x="259.541" y="313.081"/>
      <point x="249.992" y="315.342" type="curve"/>
      <point x="252.829" y="63.5059" type="line" smooth="yes"/>
      <point x="253.012" y="45.7666"/>
      <point x="274.742" y="29.3135"/>
      <point x="298.144" y="28.9463" type="curve" smooth="yes"/>
      <point x="304.05" y="28.8535" type="line"/>
      <point x="304.05" y="28.8535"/>
      <point x="308.392" y="24.0566"/>
      <point x="308.392" y="15.3047" type="curve" smooth="yes"/>
      <point x="308.392" y="7.30469"/>
      <point x="305" y="0"/>
      <point x="305" y="0" type="curve"/>
      <point x="54" y="0" type="line"/>
      <point x="54" y="0"/>
      <point x="49.3916" y="6.55273"/>
      <point x="49.3916" y="15.3047" type="curve" smooth="yes"/>
      <point x="49.3916" y="23.3047"/>
      <point x="54" y="29"/>
      <point x="54" y="29" type="curve"/>
      <point x="60.9062" y="29.3838" type="line" smooth="yes"/>
      <point x="85" y="31"/>
      <point x="106.047" y="46.0957"/>
      <point x="106.242" y="64.5674" type="curve" smooth="yes"/>
      <point x="107.839" y="181.213"/>
      <point x="108.146" y="287.812"/>
      <point x="108.146" y="404.252" type="curve" smooth="yes"/>
      <point x="108.146" y="490.013"/>
      <point x="106.362" y="572.549"/>
      <point x="106.362" y="658.178" type="curve" smooth="yes"/>
      <point x="106.362" y="683.558"/>
      <point x="91" y="701"/>
      <point x="61.9102" y="701.022" type="curve" smooth="yes"/>
      <point x="54" y="701" type="line"/>
      <point x="54" y="701"/>
      <point x="49.3916" y="707.553"/>
      <point x="49.3916" y="716.305" type="curve" smooth="yes"/>
      <point x="49.3916" y="724.305"/>
      <point x="54" y="730"/>
      <point x="54" y="730" type="curve"/>
      <point x="62.1318" y="730.332" type="line" smooth="yes"/>
      <point x="70.749" y="730.173"/>
      <point x="78.3721" y="730.104"/>
      <point x="87" y="730.104" type="curve" smooth="yes"/>
      <point x="150.797" y="730.104"/>
      <point x="224.838" y="734"/>
      <point x="290.266" y="734" type="curve" smooth="yes"/>
      <point x="446.657" y="734"/>
      <point x="574.256" y="676.373"/>
      <point x="574.256" y="534.771" type="curve" smooth="yes"/>
      <point x="574.256" y="431.076"/>
      <point x="504.387" y="358.009"/>
      <point x="414.902" y="335.103" type="curve"/>
      <point x="502.21" y="213.066"/>
      <point x="573.452" y="113.711"/>
      <point x="613.497" y="60.3105" type="curve" smooth="yes"/>
      <point x="627.575" y="41.5381"/>
      <point x="636" y="32"/>
      <point x="663.656" y="30.083" type="curve" smooth="yes"/>
      <point x="670.397" y="29.6094" type="line"/>
      <point x="670.397" y="29.6094"/>
      <point x="674.392" y="25.0566"/>
      <point x="674.392" y="16.3047" type="curve" smooth="yes"/>
      <point x="674.392" y="8.30469"/>
      <point x="670" y="0"/>
    </contour>
    <contour>
      <point x="249.568" y="406.344" type="curve" smooth="yes"/>
      <point x="249.568" y="396.553"/>
      <point x="249.574" y="379.8"/>
      <point x="249.602" y="371.257" type="curve"/>
      <point x="259.294" y="371.109"/>
      <point x="269.667" y="371"/>
      <point x="279" y="371" type="curve" smooth="yes"/>
      <point x="373.599" y="371"/>
      <point x="441.53" y="443.598"/>
      <point x="441.53" y="531.491" type="curve" smooth="yes"/>
      <point x="441.53" y="635.22"/>
      <point x="377.757" y="689.888"/>
      <point x="294" y="689.888" type="curve" smooth="yes"/>
      <point x="253.031" y="689.888" type="line"/>
      <point x="252.102" y="591.007"/>
      <point x="249.568" y="504.332"/>
    </contour>
  </outline>
</glyph>
<glyph name="S" format="1">
  <advance width="633"/>
  <unicode hex="0053"/>
  <outline>
    <contour>
      <point x="145.044" y="205.32" type="curve"/>
      <point x="150.728" y="155.766"/>
      <point x="214.362" y="50.4434"/>
      <point x="315.371" y="50.4434" type="curve" smooth="yes"/>
      <point x="389.676" y="50.4434"/>
      <point x="438.308" y="101.717"/>
      <point x="438.308" y="174.49" type="curve" smooth="yes"/>
      <point x="438.308" y="248.498"/>
      <point x="372.277" y="295.261"/>
      <point x="284.211" y="345.998" type="curve" smooth="yes"/>
      <point x="191.449" y="399.44"/>
      <point x="95.5469" y="475.965"/>
      <point x="95.5469" y="558.514" type="curve" smooth="yes"/>
      <point x="95.5469" y="650.105"/>
      <point x="189.592" y="742.33"/>
      <point x="349.259" y="742.33" type="curve" smooth="yes"/>
      <point x="438.719" y="742.33"/>
      <point x="535.37" y="714.271"/>
      <point x="535.37" y="686" type="curve" smooth="yes"/>
      <point x="535.37" y="672.715"/>
      <point x="513.745" y="587.898"/>
      <point x="494" y="587.898" type="curve" smooth="yes"/>
      <point x="466.295" y="587.898"/>
      <point x="448.185" y="695.885"/>
      <point x="332.271" y="695.885" type="curve" smooth="yes"/>
      <point x="271.012" y="695.885"/>
      <point x="234.682" y="633.636"/>
      <point x="234.682" y="584.478" type="curve" smooth="yes"/>
      <point x="234.682" y="516.304"/>
      <point x="294.86" y="476.045"/>
      <point x="381.652" y="427.27" type="curve" smooth="yes"/>
      <point x="487.295" y="366.635"/>
      <point x="570.809" y="304.594"/>
      <point x="570.809" y="214.553" type="curve" smooth="yes"/>
      <point x="570.809" y="130.538"/>
      <point x="523.146" y="78.2412"/>
      <point x="472.796" y="38.1035" type="curve" smooth="yes"/>
      <point x="434.486" y="7.85742"/>
      <point x="364.521" y="-9.56348"/>
      <point x="312.998" y="-9.56348" type="curve" smooth="yes"/>
      <point x="160.957" y="-9.56348"/>
      <point x="70.002" y="75.9795"/>
      <point x="70.002" y="123" type="curve" smooth="yes"/>
      <point x="70.002" y="146.665"/>
      <point x="107.676" y="216.003"/>
      <point x="132" y="216.003" type="curve" smooth="yes"/>
      <point x="135.35" y="216.003"/>
      <point x="144.102" y="214.381"/>
    </contour>
  </outline>
</glyph>
<glyph name="T" format="1">
  <advance width="749"/>
  <unicode hex="0054"/>
  <outline>
    <contour>
      <point x="510" y="0" type="curve"/>
      <point x="259" y="0" type="line"/>
      <point x="259" y="0"/>
      <point x="254.392" y="6.55273"/>
      <point x="254.392" y="15.3047" type="curve" smooth="yes"/>
      <point x="254.392" y="23.3047"/>
      <point x="259" y="29"/>
      <point x="259" y="29" type="curve"/>
      <point x="266.005" y="29.2842" type="line" smooth="yes"/>
      <point x="278.364" y="29.4395"/>
      <point x="283.037" y="30.3623"/>
      <point x="292.262" y="35.3145" type="curve" smooth="yes"/>
      <point x="306.428" y="42.9189"/>
      <point x="310.024" y="55.0488"/>
      <point x="310.143" y="64.0576" type="curve" smooth="yes"/>
      <point x="311.539" y="128.843"/>
      <point x="313.023" y="264.542"/>
      <point x="313.023" y="329.221" type="curve" smooth="yes"/>
      <point x="313.023" y="467.991"/>
      <point x="311.791" y="515.669"/>
      <point x="311.534" y="654.898" type="curve" smooth="yes"/>
      <point x="311.534" y="670.686"/>
      <point x="305.636" y="682.237"/>
      <point x="294.637" y="683.815" type="curve" smooth="yes"/>
      <point x="288.879" y="684.642"/>
      <point x="277.482" y="685.114"/>
      <point x="263.636" y="685.114" type="curve" smooth="yes"/>
      <point x="228.809" y="685.114"/>
      <point x="190.43" y="682.118"/>
      <point x="161.299" y="677.104" type="curve" smooth="yes"/>
      <point x="119.049" y="669.722"/>
      <point x="101.326" y="640.478"/>
      <point x="91.9531" y="590.315" type="curve"/>
      <point x="58" y="590.339" type="line"/>
      <point x="77.2842" y="727.471" type="line"/>
      <point x="77.3984" y="727.881" type="line" smooth="yes"/>
      <point x="79.1357" y="734.109"/>
      <point x="85.2607" y="735.953"/>
      <point x="89.1406" y="735.953" type="curve" smooth="yes"/>
      <point x="97.0664" y="735.953"/>
      <point x="106.723" y="732.861"/>
      <point x="113.2" y="732.764" type="curve" smooth="yes"/>
      <point x="150.035" y="732.207"/>
      <point x="267.834" y="730"/>
      <point x="394.189" y="730" type="curve"/>
      <point x="505.101" y="730.999"/>
      <point x="580.114" y="732.756"/>
      <point x="669.89" y="734.753" type="curve" smooth="yes"/>
      <point x="673.141" y="734.825"/>
      <point x="687.814" y="737.774"/>
      <point x="694.512" y="737.774" type="curve" smooth="yes"/>
      <point x="699.469" y="737.774"/>
      <point x="703.141" y="737.121"/>
      <point x="703.141" y="725.884" type="curve"/>
      <point x="698.899" y="589.981" type="line"/>
      <point x="668.169" y="589.765" type="line"/>
      <point x="668.017" y="625.199"/>
      <point x="660.038" y="671.898"/>
      <point x="629.676" y="679.146" type="curve" smooth="yes"/>
      <point x="607.245" y="684.5"/>
      <point x="593.197" y="684.759"/>
      <point x="531.922" y="684.759" type="curve" smooth="yes"/>
      <point x="514.086" y="684.759"/>
      <point x="498.495" y="684.334"/>
      <point x="479.612" y="683.956" type="curve" smooth="yes"/>
      <point x="464.529" y="683.654"/>
      <point x="457.941" y="672.018"/>
      <point x="457.821" y="661.188" type="curve" smooth="yes"/>
      <point x="456.095" y="546.837"/>
      <point x="455.026" y="442.542"/>
      <point x="455.026" y="328.383" type="curve" smooth="yes"/>
      <point x="455.026" y="236.971"/>
      <point x="455.855" y="155.718"/>
      <point x="457.882" y="64.4688" type="curve"/>
      <point x="458.007" y="54.918"/>
      <point x="466.037" y="39.7441"/>
      <point x="482.155" y="33.5469" type="curve" smooth="yes"/>
      <point x="489.245" y="30.8213"/>
      <point x="495.286" y="29.3867"/>
      <point x="503.23" y="29.2842" type="curve" smooth="yes"/>
      <point x="509.397" y="28.6094" type="line"/>
      <point x="509.397" y="28.6094"/>
      <point x="513.392" y="24.0566"/>
      <point x="513.392" y="15.3047" type="curve" smooth="yes"/>
      <point x="513.392" y="7.30469"/>
      <point x="510" y="0"/>
    </contour>
  </outline>
</glyph>
<glyph name="V" format="1">
  <advance width="769"/>
  <unicode hex="0056"/>
  <outline>
    <contour>
      <point x="780" y="701" type="curve"/>
      <point x="772" y="701" type="line" smooth="yes"/>
      <point x="743" y="701"/>
      <point x="738.611" y="685.818"/>
      <point x="724.31" y="658.628" type="curve"/>
      <point x="443.109" y="24.9521" type="line"/>
      <point x="437.923" y="13.1201"/>
      <point x="434.835" y="6.26953"/>
      <point x="434.824" y="6.24512" type="curve" smooth="yes"/>
      <point x="434.739" y="6.05469" type="line"/>
      <point x="434.644" y="5.86914" type="line" smooth="yes"/>
      <point x="433.178" y="3.02539"/>
      <point x="428.18" y="-8"/>
      <point x="416.938" y="-8" type="curve" smooth="yes"/>
      <point x="407.444" y="-8"/>
      <point x="400.721" y="-0.759766"/>
      <point x="397.908" y="6.51465" type="curve" smooth="yes"/>
      <point x="303.951" y="228.435"/>
      <point x="201.316" y="439.225"/>
      <point x="110" y="665.552" type="curve" smooth="yes"/>
      <point x="100.252" y="689.712"/>
      <point x="93" y="701"/>
      <point x="67" y="701" type="curve" smooth="yes"/>
      <point x="60" y="701" type="line"/>
      <point x="60" y="701"/>
      <point x="55.3916" y="707.553"/>
      <point x="55.3916" y="716.305" type="curve" smooth="yes"/>
      <point x="55.3916" y="724.305"/>
      <point x="60" y="730"/>
      <point x="60" y="730" type="curve"/>
      <point x="315.5" y="730" type="line"/>
      <point x="315.5" y="730"/>
      <point x="318.392" y="725.057"/>
      <point x="318.392" y="716.305" type="curve" smooth="yes"/>
      <point x="318.392" y="708.305"/>
      <point x="315" y="701"/>
      <point x="315" y="701" type="curve"/>
      <point x="308.281" y="701" type="line" smooth="yes"/>
      <point x="286" y="701"/>
      <point x="263.229" y="683.776"/>
      <point x="263.229" y="669.516" type="curve" smooth="yes"/>
      <point x="263.229" y="665.904"/>
      <point x="263.849" y="659.178"/>
      <point x="266.659" y="652.182" type="curve"/>
      <point x="446.529" y="232.462" type="line"/>
      <point x="635.531" y="645.711" type="line"/>
      <point x="641.449" y="659.484"/>
      <point x="643.592" y="663.052"/>
      <point x="643.592" y="669.165" type="curve" smooth="yes"/>
      <point x="643.592" y="685.606"/>
      <point x="621" y="701"/>
      <point x="599.906" y="701" type="curve" smooth="yes"/>
      <point x="593" y="701" type="line"/>
      <point x="593" y="701"/>
      <point x="588.392" y="707.553"/>
      <point x="588.392" y="716.305" type="curve" smooth="yes"/>
      <point x="588.392" y="724.305"/>
      <point x="593" y="730"/>
      <point x="593" y="730" type="curve"/>
      <point x="779" y="730" type="line"/>
      <point x="779" y="730"/>
      <point x="783.392" y="725.057"/>
      <point x="783.392" y="716.305" type="curve" smooth="yes"/>
      <point x="783.392" y="708.305"/>
      <point x="780" y="701"/>
    </contour>
  </outline>
</glyph>
<glyph name="W" format="1">
  <advance width="1097"/>
  <unicode hex="0057"/>
  <outline>
    <contour>
      <point x="1067" y="701" type="curve"/>
      <point x="1060.09" y="700.486" type="line" smooth="yes"/>
      <point x="1029.23" y="698.481"/>
      <point x="1022.43" y="683.635"/>
      <point x="1010" y="656" type="curve" smooth="yes"/>
      <point x="1010" y="656"/>
      <point x="753.282" y="79.9092"/>
      <point x="730.326" y="25.2705" type="curve"/>
      <point x="725.583" y="14.5498"/>
      <point x="722.118" y="7.03906"/>
      <point x="722.082" y="6.95996" type="curve" smooth="yes"/>
      <point x="718.247" y="-1.48633"/>
      <point x="708.216" y="-7.8291"/>
      <point x="699.973" y="-7.8291" type="curve" smooth="yes"/>
      <point x="691.474" y="-7.8291"/>
      <point x="682.588" y="-0.285156"/>
      <point x="679.56" y="6.73438" type="curve" smooth="yes"/>
      <point x="676.62" y="13.5459"/>
      <point x="632.369" y="153.615"/>
      <point x="572.976" y="320.579" type="curve"/>
      <point x="428.332" y="25.5645" type="line" smooth="yes"/>
      <point x="423.65" y="14.7744"/>
      <point x="420.132" y="7"/>
      <point x="420.114" y="6.96094" type="curve" smooth="yes"/>
      <point x="416.28" y="-1.48633"/>
      <point x="406.249" y="-7.8291"/>
      <point x="398.005" y="-7.8291" type="curve" smooth="yes"/>
      <point x="389.654" y="-7.8291"/>
      <point x="380.51" y="-0.483398"/>
      <point x="377.53" y="6.88086" type="curve" smooth="yes"/>
      <point x="372.507" y="19.0654"/>
      <point x="178.992" y="475.73"/>
      <point x="108.155" y="646.7" type="curve" smooth="yes"/>
      <point x="101.258" y="662.945" type="line" smooth="yes"/>
      <point x="90.1289" y="689.717"/>
      <point x="85" y="698"/>
      <point x="56.9062" y="700.486" type="curve" smooth="yes"/>
      <point x="50" y="701" type="line"/>
      <point x="50" y="701"/>
      <point x="45.3916" y="707.553"/>
      <point x="45.3916" y="716.305" type="curve" smooth="yes"/>
      <point x="45.3916" y="724.305"/>
      <point x="50" y="730"/>
      <point x="50" y="730" type="curve"/>
      <point x="300.98" y="730" type="line"/>
      <point x="300.98" y="730"/>
      <point x="304.392" y="725.057"/>
      <point x="304.392" y="716.305" type="curve" smooth="yes"/>
      <point x="304.392" y="708.305"/>
      <point x="301" y="701"/>
      <point x="301" y="701" type="curve"/>
      <point x="294.947" y="700.918" type="line" smooth="yes"/>
      <point x="272.991" y="700.62"/>
      <point x="248.865" y="686.48"/>
      <point x="248.865" y="665" type="curve" smooth="yes"/>
      <point x="248.865" y="660.38"/>
      <point x="250.082" y="658.721"/>
      <point x="252.344" y="651.509" type="curve"/>
      <point x="435.078" y="228.792" type="line"/>
      <point x="529.101" y="410.893" type="line"/>
      <point x="427" y="665" type="line" smooth="yes"/>
      <point x="416.807" y="688.918"/>
      <point x="400.986" y="700.73"/>
      <point x="383.604" y="700.918" type="curve" smooth="yes"/>
      <point x="376" y="701" type="line"/>
      <point x="376" y="701"/>
      <point x="372.392" y="707.553"/>
      <point x="372.392" y="716.305" type="curve" smooth="yes"/>
      <point x="372.392" y="724.305"/>
      <point x="376" y="730"/>
      <point x="376" y="730" type="curve"/>
      <point x="580" y="730" type="line"/>
      <point x="580" y="730"/>
      <point x="583.392" y="725.057"/>
      <point x="583.392" y="716.305" type="curve" smooth="yes"/>
      <point x="583.392" y="708.305"/>
      <point x="580" y="701"/>
      <point x="580" y="701" type="curve"/>
      <point x="572.804" y="701.053" type="line" smooth="yes"/>
      <point x="552" y="701"/>
      <point x="530.603" y="686.187"/>
      <point x="530.603" y="668" type="curve" smooth="yes"/>
      <point x="530.603" y="662.761"/>
      <point x="531.969" y="658.475"/>
      <point x="535.576" y="649.312" type="curve"/>
      <point x="596.789" y="512.91" type="line"/>
      <point x="624.378" y="567.239"/>
      <point x="642.045" y="591.56"/>
      <point x="665.297" y="645.113" type="curve"/>
      <point x="671.518" y="658.96"/>
      <point x="672.875" y="662.304"/>
      <point x="672.875" y="669" type="curve" smooth="yes"/>
      <point x="672.875" y="687.28"/>
      <point x="656.008" y="700.71"/>
      <point x="637.349" y="700.918" type="curve" smooth="yes"/>
      <point x="625" y="701" type="line"/>
      <point x="625" y="701"/>
      <point x="620.392" y="707.553"/>
      <point x="620.392" y="716.305" type="curve" smooth="yes"/>
      <point x="620.392" y="724.305"/>
      <point x="625" y="730"/>
      <point x="625" y="730" type="curve"/>
      <point x="799" y="730" type="line"/>
      <point x="799" y="730"/>
      <point x="803.392" y="725.057"/>
      <point x="803.392" y="716.305" type="curve" smooth="yes"/>
      <point x="803.392" y="708.305"/>
      <point x="800" y="701"/>
      <point x="800" y="701" type="curve"/>
      <point x="792.395" y="700.918" type="line" smooth="yes"/>
      <point x="763.993" y="700.611"/>
      <point x="758.71" y="687.356"/>
      <point x="746.767" y="662.131" type="curve" smooth="yes"/>
      <point x="637.169" y="431.826" type="line"/>
      <point x="719.754" y="222.828" type="line"/>
      <point x="802.862" y="389.488"/>
      <point x="844.1" y="482.438"/>
      <point x="915.398" y="644.554" type="curve"/>
      <point x="919" y="652"/>
      <point x="923" y="661.157"/>
      <point x="923" y="668" type="curve" smooth="yes"/>
      <point x="923" y="686.315"/>
      <point x="899.984" y="700.687"/>
      <point x="880.058" y="700.918" type="curve" smooth="yes"/>
      <point x="873" y="701" type="line"/>
      <point x="873" y="701"/>
      <point x="869.392" y="707.553"/>
      <point x="869.392" y="716.305" type="curve" smooth="yes"/>
      <point x="869.392" y="724.305"/>
      <point x="873" y="730"/>
      <point x="873" y="730" type="curve"/>
      <point x="1067" y="730" type="line"/>
      <point x="1067" y="730"/>
      <point x="1070.39" y="724.057"/>
      <point x="1070.39" y="715.305" type="curve" smooth="yes"/>
      <point x="1070.39" y="707.305"/>
      <point x="1067" y="701"/>
    </contour>
  </outline>
</glyph>
<glyph name="Z" format="1">
  <advance width="740"/>
  <unicode hex="005A"/>
  <outline>
    <contour>
      <point x="663.938" y="696.516" type="curve" smooth="yes"/>
      <point x="663.938" y="687.562"/>
      <point x="661.083" y="671.215"/>
      <point x="654.426" y="661.973" type="curve" smooth="yes"/>
      <point x="230.229" y="52.2832" type="line"/>
      <point x="265.876" y="47.9912"/>
      <point x="311.751" y="46"/>
      <point x="353.228" y="46" type="curve" smooth="yes"/>
      <point x="398.75" y="46"/>
      <point x="434.463" y="46.3848"/>
      <point x="486.223" y="53.1367" type="curve" smooth="yes"/>
      <point x="572.283" y="64.3623"/>
      <point x="600" y="146"/>
      <point x="611.059" y="176.721" type="curve"/>
      <point x="644.243" y="178.443" type="line"/>
      <point x="593.805" y="0" type="line"/>
      <point x="86.8877" y="0" type="line" smooth="yes"/>
      <point x="79.1328" y="0"/>
      <point x="54.0146" y="8.12598"/>
      <point x="54.0146" y="29.5059" type="curve" smooth="yes"/>
      <point x="54.0146" y="37.2178"/>
      <point x="57.1045" y="50.3262"/>
      <point x="61.0889" y="55.9932" type="curve"/>
      <point x="503.236" y="683.662" type="line"/>
      <point x="474.481" y="684.897"/>
      <point x="412.208" y="687.333"/>
      <point x="366.383" y="687.333" type="curve"/>
      <point x="304.875" y="687.021"/>
      <point x="297.333" y="685.871"/>
      <point x="255.442" y="677.291" type="curve" smooth="yes"/>
      <point x="187.546" y="663.217"/>
      <point x="158.104" y="631.044"/>
      <point x="144.71" y="572.752" type="curve" smooth="yes"/>
      <point x="143.539" y="567.654" type="line"/>
      <point x="113.045" y="565.774" type="line"/>
      <point x="146.092" y="725.021" type="line"/>
      <point x="146.14" y="725.194" type="line" smooth="yes"/>
      <point x="148.496" y="733.734"/>
      <point x="157.281" y="734.544"/>
      <point x="162" y="734.544" type="curve" smooth="yes"/>
      <point x="173.171" y="734.544"/>
      <point x="187.937" y="730"/>
      <point x="192.875" y="730" type="curve" smooth="yes"/>
      <point x="376.561" y="730.333" type="line" smooth="yes"/>
      <point x="656.742" y="730.333" type="line"/>
      <point x="658.443" y="725.786" type="line" smooth="yes"/>
      <point x="658.556" y="725.492"/>
      <point x="663.938" y="710.434"/>
    </contour>
  </outline>
</glyph>
<glyph name="backslash" format="1">
  <advance width="438"/>
  <unicode hex="005C"/>
  <outline>
    <contour>
      <point x="378.391" y="-102.214" type="line" smooth="yes"/>
      <point x="368.544" y="-107.319"/>
      <point x="327.22" y="-110.053"/>
      <point x="316" y="-110.053" type="curve" smooth="yes"/>
      <point x="291.51" y="-110.053"/>
      <point x="280.13" y="-94.1621"/>
      <point x="275.298" y="-59.4824" type="curve"/>
      <point x="270.124" y="-42.8506"/>
      <point x="123.669" y="427.551"/>
      <point x="36.4023" y="673.66" type="curve" smooth="yes"/>
      <point x="36" y="674.796" type="line"/>
      <point x="36" y="676" type="line" smooth="yes"/>
      <point x="36" y="693.164"/>
      <point x="78.1152" y="703.256"/>
      <point x="94" y="703.256" type="curve" smooth="yes"/>
      <point x="108.606" y="703.256"/>
      <point x="135.181" y="695.747"/>
      <point x="153.466" y="681.525" type="curve"/>
      <point x="155.908" y="677.889" type="line"/>
      <point x="227.878" y="420.998"/>
      <point x="300.812" y="185.21"/>
      <point x="401.75" y="-93.6172" type="curve" smooth="yes"/>
      <point x="403.839" y="-99.3887" type="line"/>
    </contour>
  </outline>
</glyph>
<glyph name="asciicircum" format="1">
  <advance width="537"/>
  <unicode hex="005E"/>
  <outline>
    <contour>
      <point x="461.388" y="584.475" type="line" smooth="yes"/>
      <point x="456.897" y="571.577"/>
      <point x="444.9" y="555.667"/>
      <point x="433.932" y="552.116" type="curve" smooth="yes"/>
      <point x="430.591" y="551.035" type="line"/>
      <point x="265" y="646.417" type="line"/>
      <point x="99.4229" y="551.044" type="line"/>
      <point x="96.0928" y="552.108" type="line" smooth="yes"/>
      <point x="83.5449" y="556.119"/>
      <point x="71.8008" y="572.99"/>
      <point x="68.4805" y="584.896" type="curve" smooth="yes"/>
      <point x="67.3828" y="588.835" type="line"/>
      <point x="265" y="785.453" type="line"/>
      <point x="462.831" y="588.621" type="line"/>
    </contour>
  </outline>
</glyph>
<glyph name="grave" format="1">
  <advance width="321"/>
  <unicode hex="0060"/>
  <outline>
    <contour>
      <point x="263.811" y="528.191" type="line" smooth="yes"/>
      <point x="202.933" y="567.359"/>
      <point x="68.0039" y="651.77"/>
      <point x="49.3701" y="669.594" type="curve" smooth="yes"/>
      <point x="37.5439" y="680.905"/>
      <point x="31.9707" y="695.723"/>
      <point x="31.9707" y="710.293" type="curve" smooth="yes"/>
      <point x="31.9707" y="749.212"/>
      <point x="62.3643" y="783.316"/>
      <point x="101.577" y="783.316" type="curve" smooth="yes"/>
      <point x="116.804" y="783.316"/>
      <point x="132.276" y="777.972"/>
      <point x="144.089" y="766.675" type="curve" smooth="yes"/>
      <point x="162.78" y="748.797"/>
      <point x="248.491" y="610.882"/>
      <point x="290.166" y="553.567" type="curve" smooth="yes"/>
      <point x="294.013" y="548.277" type="line"/>
      <point x="269.313" y="524.651" type="line"/>
    </contour>
  </outline>
</glyph>
<glyph name="c" format="1">
  <advance width="549"/>
  <unicode hex="0063"/>
  <outline>
    <contour>
      <point x="481.547" y="111.927" type="curve"/>
      <point x="509.798" y="76.5801" type="line"/>
      <point x="450.965" y="19.0664"/>
      <point x="409.288" y="-10"/>
      <point x="288.654" y="-10" type="curve" smooth="yes"/>
      <point x="161.304" y="-10"/>
      <point x="43.002" y="61.6201"/>
      <point x="43.002" y="265.711" type="curve" smooth="yes"/>
      <point x="43.002" y="359.693"/>
      <point x="80.8701" y="512.857"/>
      <point x="304.243" y="512.857" type="curve" smooth="yes"/>
      <point x="364.069" y="512.857"/>
      <point x="442.497" y="494.875"/>
      <point x="500.002" y="429.656" type="curve" smooth="yes"/>
      <point x="503.637" y="425.532"/>
      <point x="506.523" y="420.711"/>
      <point x="506.523" y="415" type="curve" smooth="yes"/>
      <point x="506.523" y="392.042"/>
      <point x="457.752" y="357.485"/>
      <point x="439" y="357.485" type="curve" smooth="yes"/>
      <point x="356.716" y="357.485"/>
      <point x="381.009" y="483.075"/>
      <point x="303.031" y="483.075" type="curve" smooth="yes"/>
      <point x="238.911" y="483.075"/>
      <point x="175.057" y="393.786"/>
      <point x="175.057" y="278.516" type="curve" smooth="yes"/>
      <point x="175.057" y="187.32"/>
      <point x="205.89" y="40"/>
      <point x="315" y="40" type="curve" smooth="yes"/>
      <point x="378.59" y="40"/>
      <point x="427.044" y="56.624"/>
    </contour>
  </outline>
</glyph>
<glyph name="d" format="1">
  <advance width="612"/>
  <unicode hex="0064"/>
  <outline>
    <contour>
      <point x="553.932" y="57.9854" type="curve"/>
      <point x="558.404" y="21.4717" type="line"/>
      <point x="528.944" y="8.19824"/>
      <point x="477.719" y="-7.39941"/>
      <point x="448.31" y="-7.39941" type="curve" smooth="yes"/>
      <point x="426.249" y="-7.39941"/>
      <point x="387.639" y="10.9307"/>
      <point x="384.729" y="24.4404" type="curve"/>
      <point x="350.119" y="2.39551"/>
      <point x="341.842" y="-10"/>
      <point x="290.903" y="-10" type="curve" smooth="yes"/>
      <point x="159.617" y="-10"/>
      <point x="47.001" y="64.3496"/>
      <point x="47.001" y="264.028" type="curve" smooth="yes"/>
      <point x="47.001" y="427.936"/>
      <point x="138.71" y="513.166"/>
      <point x="287.838" y="513.166" type="curve" smooth="yes"/>
      <point x="341.85" y="513.166"/>
      <point x="342.999" y="505.953"/>
      <point x="383.408" y="490" type="curve"/>
      <point x="383.408" y="654.149" type="line" smooth="yes"/>
      <point x="383.408" y="675.746"/>
      <point x="372.612" y="685.496"/>
      <point x="354.979" y="685.496" type="curve" smooth="yes"/>
      <point x="347.559" y="685.496" type="line"/>
      <point x="347.559" y="711.457" type="line"/>
      <point x="499.542" y="747.041" type="line" smooth="yes"/>
      <point x="500.979" y="747.426"/>
      <point x="502.453" y="747.668"/>
      <point x="504" y="747.668" type="curve" smooth="yes"/>
      <point x="507.242" y="747.668"/>
      <point x="510.897" y="746.262"/>
      <point x="513.209" y="743.402" type="curve" smooth="yes"/>
      <point x="517.47" y="738.135"/>
      <point x="517.254" y="731.63"/>
      <point x="517.285" y="723.425" type="curve" smooth="yes"/>
      <point x="517.189" y="67.2822" type="line"/>
      <point x="517.189" y="67.2822"/>
      <point x="517.468" y="60.7002"/>
      <point x="517.468" y="59.1064" type="curve" smooth="yes"/>
      <point x="517.468" y="49.6729" type="line"/>
      <point x="528.047" y="51.918"/>
      <point x="543.628" y="54.9238"/>
    </contour>
    <contour>
      <point x="383.408" y="69.1406" type="curve"/>
      <point x="383.408" y="388.743" type="line"/>
      <point x="369.793" y="449.66"/>
      <point x="347.599" y="482"/>
      <point x="288.897" y="482" type="curve" smooth="yes"/>
      <point x="227.217" y="482"/>
      <point x="177.023" y="385.882"/>
      <point x="177.023" y="274.884" type="curve" smooth="yes"/>
      <point x="177.023" y="132.408"/>
      <point x="218.677" y="33.8711"/>
      <point x="309.037" y="33.8711" type="curve" smooth="yes"/>
      <point x="340.591" y="33.8711"/>
      <point x="347.07" y="44.7539"/>
    </contour>
  </outline>
</glyph>
<glyph name="e" format="1">
  <advance width="565"/>
  <unicode hex="0065"/>
  <outline>
    <contour>
      <point x="520.562" y="301.553" type="curve"/>
      <point x="189.734" y="302.634" type="line"/>
      <point x="185.021" y="282.668"/>
      <point x="182.764" y="262.175"/>
      <point x="182.764" y="241.863" type="curve" smooth="yes"/>
      <point x="182.764" y="138.287"/>
      <point x="241.47" y="39.4512"/>
      <point x="332.585" y="39.4512" type="curve" smooth="yes"/>
      <point x="399.437" y="39.4512"/>
      <point x="437.596" y="72.7529"/>
      <point x="487.428" y="117.306" type="curve"/>
      <point x="510.692" y="85.9365" type="line"/>
      <point x="457.309" y="25.8301"/>
      <point x="415.025" y="-10.7041"/>
      <point x="310.417" y="-10.7041" type="curve" smooth="yes"/>
      <point x="168.187" y="-10.7041"/>
      <point x="40.9697" y="70.8994"/>
      <point x="40.9697" y="256.025" type="curve" smooth="yes"/>
      <point x="40.9697" y="437.751"/>
      <point x="151.016" y="511.682"/>
      <point x="303.468" y="511.682" type="curve" smooth="yes"/>
      <point x="424.501" y="511.682"/>
      <point x="521.478" y="415.132"/>
      <point x="521.478" y="318.472" type="curve" smooth="yes"/>
      <point x="521.478" y="311.512"/>
      <point x="521.017" y="308.262"/>
    </contour>
    <contour>
      <point x="303.681" y="482.908" type="curve" smooth="yes"/>
      <point x="245.544" y="482.908"/>
      <point x="207.935" y="407.554"/>
      <point x="201.829" y="364.622" type="curve"/>
      <point x="236.407" y="360.982"/>
      <point x="267.39" y="357.541"/>
      <point x="298.875" y="357.541" type="curve" smooth="yes"/>
      <point x="331.442" y="357.541"/>
      <point x="370.196" y="358.75"/>
      <point x="398.795" y="360.711" type="curve"/>
      <point x="394.148" y="419.439"/>
      <point x="353.89" y="482.908"/>
    </contour>
  </outline>
</glyph>
<glyph name="f" format="1">
  <advance width="551"/>
  <unicode hex="0066"/>
  <outline>
    <contour>
      <point x="349.246" y="766.188" type="curve" smooth="yes"/>
      <point x="412.683" y="766.188"/>
      <point x="454" y="747"/>
      <point x="494.507" y="680.662" type="curve" smooth="yes"/>
      <point x="497.242" y="676.183"/>
      <point x="500.28" y="666.146"/>
      <point x="500.28" y="661.143" type="curve" smooth="yes"/>
      <point x="500.28" y="640.611"/>
      <point x="478.195" y="616.628"/>
      <point x="452.757" y="616.628" type="curve" smooth="yes"/>
      <point x="388.785" y="616.628"/>
      <point x="410.37" y="731.104"/>
      <point x="348.694" y="731.104" type="curve" smooth="yes"/>
      <point x="294.602" y="731.104"/>
      <point x="250.217" y="676.162"/>
      <point x="250.217" y="585.434" type="curve"/>
      <point x="250.719" y="504.654" type="line"/>
      <point x="339.597" y="504.654" type="line" smooth="yes"/>
      <point x="362.313" y="504.654"/>
      <point x="376.929" y="499.588"/>
      <point x="376.929" y="485.53" type="curve" smooth="yes"/>
      <point x="376.929" y="478.766"/>
      <point x="371.129" y="457.914"/>
      <point x="368.444" y="452.57" type="curve"/>
      <point x="362.683" y="452.57" type="line" smooth="yes"/>
      <point x="356.415" y="452.57"/>
      <point x="303.076" y="455.996"/>
      <point x="256.303" y="456.386" type="curve"/>
      <point x="255.833" y="53.4805" type="line"/>
      <point x="258.222" y="41.7988"/>
      <point x="269.671" y="28.9629"/>
      <point x="285.096" y="28.7627" type="curve" smooth="yes"/>
      <point x="292.004" y="28.6738" type="line"/>
      <point x="292.004" y="0" type="line"/>
      <point x="80.8809" y="0" type="line"/>
      <point x="80.8809" y="28.668" type="line"/>
      <point x="87.7881" y="28.7568" type="line" smooth="yes"/>
      <point x="103.434" y="28.957"/>
      <point x="114.913" y="42.4238"/>
      <point x="117.107" y="53.7568" type="curve"/>
      <point x="117.107" y="456.249" type="line"/>
      <point x="80.7881" y="455.396"/>
      <point x="77.0342" y="453.261"/>
      <point x="62" y="451.102" type="curve"/>
      <point x="70.3311" y="500.703" type="line"/>
      <point x="117.104" y="500.703" type="line"/>
      <point x="117.1" y="512.754"/>
      <point x="117.093" y="543.113"/>
      <point x="117.093" y="556" type="curve" smooth="yes"/>
      <point x="117.093" y="704.113"/>
      <point x="224.975" y="766.188"/>
    </contour>
  </outline>
</glyph>
<glyph name="j" format="1">
  <advance width="312"/>
  <unicode hex="006A"/>
  <outline>
    <contour>
      <point x="174.889" y="580.765" type="curve" smooth="yes"/>
      <point x="132.96" y="580.765"/>
      <point x="98.9668" y="613.975"/>
      <point x="98.9668" y="654.938" type="curve" smooth="yes"/>
      <point x="98.9668" y="695.902"/>
      <point x="132.959" y="729.113"/>
      <point x="174.889" y="729.113" type="curve" smooth="yes"/>
      <point x="216.818" y="729.113"/>
      <point x="250.812" y="695.902"/>
      <point x="250.812" y="654.938" type="curve" smooth="yes"/>
      <point x="250.812" y="613.975"/>
      <point x="216.818" y="580.765"/>
    </contour>
    <contour>
      <point x="232" y="505.725" type="curve" smooth="yes"/>
      <point x="245.689" y="505.725"/>
      <point x="246.345" y="493.102"/>
      <point x="246.383" y="483.03" type="curve" smooth="yes"/>
      <point x="246.283" y="93.2793" type="line" smooth="yes"/>
      <point x="246.236" y="78.7939"/>
      <point x="246.161" y="64.3193"/>
      <point x="246.161" y="49.8691" type="curve" smooth="yes"/>
      <point x="246.161" y="-3.1582"/>
      <point x="243" y="-38"/>
      <point x="179.597" y="-91.707" type="curve" smooth="yes"/>
      <point x="121.911" y="-140.571"/>
      <point x="47.7715" y="-153.523"/>
      <point x="-32" y="-153.523" type="curve" smooth="yes"/>
      <point x="-54.4502" y="-153.523"/>
      <point x="-77.2627" y="-149.948"/>
      <point x="-101.976" y="-141.635" type="curve" smooth="yes"/>
      <point x="-112.601" y="-138.061"/>
      <point x="-123.956" y="-118.888"/>
      <point x="-123.956" y="-110" type="curve" smooth="yes"/>
      <point x="-123.956" y="-81.0107"/>
      <point x="-80.5977" y="-59.2393"/>
      <point x="-52" y="-59.2393" type="curve" smooth="yes"/>
      <point x="-16.8047" y="-59.2393"/>
      <point x="6.09668" y="-83.6143"/>
      <point x="33" y="-83.6143" type="curve" smooth="yes"/>
      <point x="41.0928" y="-83.6143"/>
      <point x="49.6826" y="-81.8242"/>
      <point x="59.5889" y="-76.708" type="curve" smooth="yes"/>
      <point x="111.295" y="-50.6201"/>
      <point x="112.586" y="-24.2803"/>
      <point x="112.586" y="42.6406" type="curve" smooth="yes"/>
      <point x="112.586" y="412.813" type="line" smooth="yes"/>
      <point x="112.586" y="432.999"/>
      <point x="102.368" y="443.783"/>
      <point x="85.7646" y="443.783" type="curve" smooth="yes"/>
      <point x="78.7646" y="443.783" type="line"/>
      <point x="78.7646" y="470.067" type="line"/>
      <point x="227.544" y="505.043" type="line" smooth="yes"/>
      <point x="228.859" y="505.414"/>
      <point x="230.301" y="505.725"/>
    </contour>
  </outline>
</glyph>
<glyph name="l" format="1">
  <advance width="325"/>
  <unicode hex="006C"/>
  <outline>
    <contour>
      <point x="229.954" y="53.8564" type="line"/>
      <point x="232.342" y="42.0967"/>
      <point x="243.74" y="29.2158"/>
      <point x="259.216" y="29.0156" type="curve" smooth="yes"/>
      <point x="266.123" y="28.9258" type="line"/>
      <point x="266.123" y="0" type="line"/>
      <point x="60" y="0" type="line"/>
      <point x="60" y="28.8799" type="line"/>
      <point x="66.9072" y="28.9697" type="line" smooth="yes"/>
      <point x="82.6025" y="29.1699"/>
      <point x="94.0264" y="42.6797"/>
      <point x="96.2266" y="54.0762" type="curve"/>
      <point x="96.2266" y="675.57" type="line" smooth="yes"/>
      <point x="96.2266" y="696.928"/>
      <point x="86.3926" y="706.916"/>
      <point x="69.4092" y="706.916" type="curve" smooth="yes"/>
      <point x="62.4092" y="706.916" type="line"/>
      <point x="62.4092" y="732.877" type="line"/>
      <point x="212.308" y="768.461" type="line" smooth="yes"/>
      <point x="214.011" y="768.915"/>
      <point x="215.62" y="769.081"/>
      <point x="217" y="769.081" type="curve" smooth="yes"/>
      <point x="229.768" y="769.081"/>
      <point x="230.012" y="751.661"/>
      <point x="230.049" y="741.844" type="curve" smooth="yes"/>
    </contour>
  </outline>
</glyph>
<glyph name="o" format="1">
  <advance width="587"/>
  <unicode hex="006F"/>
  <outline>
    <contour>
      <point x="303" y="-10.3389" type="curve" smooth="yes"/>
      <point x="152.309" y="-10.3389"/>
      <point x="44.9424" y="62.8125"/>
      <point x="44.9424" y="253.925" type="curve" smooth="yes"/>
      <point x="44.9424" y="439.155"/>
      <point x="142.747" y="512.426"/>
      <point x="293" y="512.426" type="curve" smooth="yes"/>
      <point x="432.146" y="512.426"/>
      <point x="553.081" y="438.779"/>
      <point x="553.081" y="253.85" type="curve" smooth="yes"/>
      <point x="553.081" y="57.7432"/>
      <point x="456.943" y="-10.3389"/>
    </contour>
    <contour>
      <point x="185.237" y="275.402" type="curve" smooth="yes"/>
      <point x="185.237" y="129.356"/>
      <point x="218.274" y="35.4287"/>
      <point x="312.292" y="35.4287" type="curve" smooth="yes"/>
      <point x="390.566" y="35.4287"/>
      <point x="412.789" y="148.397"/>
      <point x="412.789" y="235.684" type="curve" smooth="yes"/>
      <point x="412.789" y="381.96"/>
      <point x="377.736" y="481.658"/>
      <point x="287.734" y="481.658" type="curve" smooth="yes"/>
      <point x="218.557" y="481.658"/>
      <point x="185.237" y="386.979"/>
    </contour>
  </outline>
</glyph>
<glyph name="q" format="1">
  <advance width="652"/>
  <unicode hex="0071"/>
  <outline>
    <contour>
      <point x="199.544" y="274.396" type="curve" smooth="yes"/>
      <point x="199.544" y="153.192"/>
      <point x="232.259" y="33.0117"/>
      <point x="322.158" y="33.0117" type="curve" smooth="yes"/>
      <point x="349.52" y="33.0117"/>
      <point x="388.027" y="41.3506"/>
      <point x="420.046" y="68.0859" type="curve"/>
      <point x="420.195" y="409.908" type="line" smooth="yes"/>
      <point x="420.195" y="411.364"/>
      <point x="419.952" y="412.279"/>
      <point x="419.946" y="412.298" type="curve"/>
      <point x="388.582" y="445.725"/>
      <point x="360.84" y="480.217"/>
      <point x="319.677" y="480.217" type="curve" smooth="yes"/>
      <point x="269.646" y="480.217"/>
      <point x="199.544" y="421.654"/>
    </contour>
    <contour>
      <point x="421.1" y="480" type="curve"/>
      <point x="533.752" y="508.219" type="line" smooth="yes"/>
      <point x="536.831" y="509.123"/>
      <point x="538.984" y="509.771"/>
      <point x="541" y="509.771" type="curve" smooth="yes"/>
      <point x="553.669" y="509.771"/>
      <point x="553.869" y="494.727"/>
      <point x="553.869" y="485.615" type="curve" smooth="yes"/>
      <point x="553.772" y="-177.324" type="line"/>
      <point x="556.152" y="-189.256"/>
      <point x="567.452" y="-202.229"/>
      <point x="583.035" y="-202.438" type="curve" smooth="yes"/>
      <point x="589.941" y="-202.53" type="line"/>
      <point x="589.941" y="-232" type="line"/>
      <point x="383.92" y="-232" type="line"/>
      <point x="383.92" y="-202.53" type="line"/>
      <point x="391.234" y="-202.438" type="line" smooth="yes"/>
      <point x="407.559" y="-202.23"/>
      <point x="417.828" y="-188.803"/>
      <point x="420.045" y="-177.017" type="curve"/>
      <point x="420.045" y="20.7559" type="line"/>
      <point x="382.605" y="4.05469"/>
      <point x="356.175" y="-13.1143"/>
      <point x="309.327" y="-13.1143" type="curve" smooth="yes"/>
      <point x="169.941" y="-13.1143"/>
      <point x="73.9961" y="76.9316"/>
      <point x="73.9961" y="249.761" type="curve" smooth="yes"/>
      <point x="73.9961" y="438.353"/>
      <point x="149.599" y="511.807"/>
      <point x="303.149" y="511.807" type="curve" smooth="yes"/>
      <point x="341.961" y="511.807"/>
      <point x="377.937" y="499.319"/>
    </contour>
  </outline>
</glyph>
<glyph name="r" format="1">
  <advance width="470"/>
  <unicode hex="0072"/>
  <outline>
    <contour>
      <point x="361.397" y="506.913" type="curve" smooth="yes"/>
      <point x="383.256" y="506.913"/>
      <point x="453.734" y="492.713"/>
      <point x="453.734" y="458.066" type="curve" smooth="yes"/>
      <point x="453.734" y="418.978"/>
      <point x="411.574" y="392.288"/>
      <point x="381.485" y="392.288" type="curve" smooth="yes"/>
      <point x="349.419" y="392.288"/>
      <point x="327.346" y="429.11"/>
      <point x="307.16" y="429.11" type="curve" smooth="yes"/>
      <point x="273.142" y="429.11"/>
      <point x="243.48" y="402.542"/>
      <point x="234.004" y="382.146" type="curve"/>
      <point x="233.933" y="53.2783" type="line"/>
      <point x="236.409" y="42.2471"/>
      <point x="249.073" y="28.7783"/>
      <point x="261.783" y="28.6387" type="curve" smooth="yes"/>
      <point x="269.856" y="28.5498" type="line"/>
      <point x="269.856" y="0" type="line"/>
      <point x="64" y="0" type="line"/>
      <point x="64" y="28.6865" type="line"/>
      <point x="70.9072" y="28.7754" type="line" smooth="yes"/>
      <point x="86.5635" y="28.9756"/>
      <point x="98.0352" y="42.4434"/>
      <point x="100.229" y="53.792" type="curve"/>
      <point x="100.229" y="422.709" type="line" smooth="yes"/>
      <point x="100.229" y="442.832"/>
      <point x="89.9873" y="450.604"/>
      <point x="73.4092" y="450.604" type="curve" smooth="yes"/>
      <point x="66.4092" y="450.604" type="line"/>
      <point x="66.4092" y="475.797" type="line"/>
      <point x="216.188" y="512.676" type="line" smooth="yes"/>
      <point x="217.909" y="513.162"/>
      <point x="219.556" y="513.354"/>
      <point x="221" y="513.354" type="curve" smooth="yes"/>
      <point x="233.768" y="513.354"/>
      <point x="234.027" y="498.857"/>
      <point x="234.027" y="489.085" type="curve" smooth="yes"/>
      <point x="234.019" y="446.984" type="line"/>
      <point x="268.837" y="477.385"/>
      <point x="300.902" y="506.913"/>
    </contour>
  </outline>
</glyph>
<glyph name="s" format="1">
  <advance width="484"/>
  <unicode hex="0073"/>
  <outline>
    <contour>
      <point x="140.877" y="146.183" type="curve" smooth="yes"/>
      <point x="146.624" y="112.026"/>
      <point x="151.009" y="30.4434"/>
      <point x="230.234" y="30.4434" type="curve" smooth="yes"/>
      <point x="281.084" y="30.4434"/>
      <point x="304.924" y="73.7119"/>
      <point x="304.924" y="112.604" type="curve" smooth="yes"/>
      <point x="304.924" y="149.174"/>
      <point x="266.746" y="186.134"/>
      <point x="213.701" y="217.472" type="curve" smooth="yes"/>
      <point x="167.258" y="245.059"/>
      <point x="82.6777" y="301.299"/>
      <point x="82.6777" y="370.006" type="curve" smooth="yes"/>
      <point x="82.6777" y="449.795"/>
      <point x="155.826" y="505.729"/>
      <point x="261.946" y="505.729" type="curve" smooth="yes"/>
      <point x="322.384" y="505.729"/>
      <point x="402.122" y="487.637"/>
      <point x="402.122" y="464" type="curve" smooth="yes"/>
      <point x="402.122" y="453.447"/>
      <point x="392.079" y="387.337"/>
      <point x="366" y="387.337" type="curve" smooth="yes"/>
      <point x="334.242" y="387.337"/>
      <point x="319.823" y="469.515"/>
      <point x="264.385" y="469.515" type="curve" smooth="yes"/>
      <point x="224.304" y="469.515"/>
      <point x="209.161" y="422.018"/>
      <point x="209.161" y="399.093" type="curve" smooth="yes"/>
      <point x="209.161" y="352.292"/>
      <point x="269.63" y="318.199"/>
      <point x="312.734" y="291.751" type="curve" smooth="yes"/>
      <point x="365.958" y="255.188"/>
      <point x="428.715" y="214.924"/>
      <point x="428.715" y="143.518" type="curve" smooth="yes"/>
      <point x="428.715" y="48.832"/>
      <point x="339.263" y="-10"/>
      <point x="239.518" y="-10" type="curve" smooth="yes"/>
      <point x="119.217" y="-10"/>
      <point x="59.0039" y="49.1689"/>
      <point x="59.0039" y="83" type="curve" smooth="yes"/>
      <point x="59.0039" y="101.435"/>
      <point x="101.259" y="157.543"/>
      <point x="127" y="157.543" type="curve" smooth="yes"/>
      <point x="132.675" y="157.543"/>
      <point x="140.147" y="150.517"/>
    </contour>
  </outline>
</glyph>
<glyph name="t" format="1">
  <advance width="420"/>
  <unicode hex="0074"/>
  <outline>
    <contour>
      <point x="354.12" y="35.2939" type="curve"/>
      <point x="361.471" y="1.69043" type="line"/>
      <point x="341.878" y="-4.68555"/>
      <point x="329.785" y="-10.1855"/>
      <point x="309" y="-10.1855" type="curve" smooth="yes"/>
      <point x="259.352" y="-10.1855"/>
      <point x="186.549" y="-0.425781"/>
      <point x="162.071" y="24.0498" type="curve" smooth="yes"/>
      <point x="131.167" y="54.9521"/>
      <point x="129.274" y="111.658"/>
      <point x="129.079" y="168.752" type="curve"/>
      <point x="129.055" y="266.175"/>
      <point x="128.965" y="347.619"/>
      <point x="128.94" y="443.132" type="curve" smooth="yes"/>
      <point x="128.938" y="458.586"/>
      <point x="124.327" y="461.945"/>
      <point x="115.241" y="463.785" type="curve" smooth="yes"/>
      <point x="111.444" y="464.554"/>
      <point x="72.6445" y="464.885"/>
      <point x="65.5459" y="466.159" type="curve" smooth="yes"/>
      <point x="60.4531" y="467.073"/>
      <point x="56.0322" y="470.042"/>
      <point x="56.0322" y="480" type="curve" smooth="yes"/>
      <point x="56.0322" y="486.313"/>
      <point x="69.7627" y="493.391"/>
      <point x="86" y="503" type="curve" smooth="yes"/>
      <point x="127.398" y="527.499"/>
      <point x="170.251" y="545.138"/>
      <point x="205.711" y="577.013" type="curve" smooth="yes"/>
      <point x="210.116" y="580.973"/>
      <point x="223.157" y="591.791"/>
      <point x="236" y="591.791" type="curve" smooth="yes"/>
      <point x="251.192" y="591.791"/>
      <point x="262.775" y="578.823"/>
      <point x="262.775" y="563.876" type="curve" smooth="yes"/>
      <point x="262.775" y="545.519"/>
      <point x="262.768" y="528.067"/>
      <point x="262.766" y="509.775" type="curve"/>
      <point x="300.141" y="510.084"/>
      <point x="323.079" y="510.668"/>
      <point x="335" y="510.668" type="curve" smooth="yes"/>
      <point x="353.879" y="510.668"/>
      <point x="365.187" y="501.289"/>
      <point x="365.187" y="488" type="curve" smooth="yes"/>
      <point x="365.187" y="482.48"/>
      <point x="361.032" y="470.475"/>
      <point x="358.577" y="466.602" type="curve"/>
      <point x="352" y="466.602" type="line" smooth="yes"/>
      <point x="343.804" y="466.602"/>
      <point x="317.081" y="467.534"/>
      <point x="277" y="467.534" type="curve" smooth="yes"/>
      <point x="272.169" y="467.534"/>
      <point x="267.164" y="467.518"/>
      <point x="262.759" y="467.492" type="curve"/>
      <point x="262.75" y="413.467"/>
      <point x="262.719" y="349.85"/>
      <point x="262.71" y="295.983" type="curve" smooth="yes"/>
      <point x="262.71" y="163.771" type="line" smooth="yes"/>
      <point x="262.71" y="138.762"/>
      <point x="263.43" y="89.1074"/>
      <point x="268.712" y="73.4365" type="curve" smooth="yes"/>
      <point x="279.351" y="41.875"/>
      <point x="299.408" y="30.2012"/>
      <point x="326" y="30.2012" type="curve" smooth="yes"/>
      <point x="334.25" y="30.2012"/>
      <point x="345.437" y="32.8145"/>
    </contour>
  </outline>
</glyph>
<glyph name="y" format="1">
  <advance width="605"/>
  <unicode hex="0079"/>
  <outline>
    <contour>
      <point x="358.27" y="59.2754" type="curve" smooth="yes"/>
      <point x="340.937" y="20.2383"/>
      <point x="314.009" y="-31.0156"/>
      <point x="301.756" y="-50.4844" type="curve" smooth="yes"/>
      <point x="278.96" y="-87.6338"/>
      <point x="197.934" y="-230.118"/>
      <point x="133" y="-230.118" type="curve" smooth="yes"/>
      <point x="96.2422" y="-230.118"/>
      <point x="88.4316" y="-200.823"/>
      <point x="88.4316" y="-191" type="curve" smooth="yes"/>
      <point x="88.4316" y="-182.707"/>
      <point x="89.6816" y="-173.938"/>
      <point x="92.4434" y="-166.549" type="curve" smooth="yes"/>
      <point x="113.428" y="-110.404"/>
      <point x="160" y="-135"/>
      <point x="198.793" y="-80.1494" type="curve" smooth="yes"/>
      <point x="212.225" y="-61.1582"/>
      <point x="239.713" y="-5.79004"/>
      <point x="247.225" y="13.8262" type="curve"/>
      <point x="244.391" y="21.6318"/>
      <point x="238.333" y="43.4902"/>
      <point x="237.443" y="45.7305" type="curve" smooth="yes"/>
      <point x="237.443" y="45.7305"/>
      <point x="193.482" y="154.246"/>
      <point x="149.88" y="271.165" type="curve" smooth="yes"/>
      <point x="114.034" y="367.283"/>
      <point x="75.9727" y="456.587"/>
      <point x="75.2568" y="458.303" type="curve" smooth="yes"/>
      <point x="72.2598" y="465.042"/>
      <point x="65.5752" y="479.558"/>
      <point x="46" y="479.558" type="curve"/>
      <point x="46" y="506.515" type="line"/>
      <point x="233.244" y="506.515" type="line"/>
      <point x="233.244" y="478.426" type="line"/>
      <point x="227.338" y="478.334" type="line" smooth="yes"/>
      <point x="215.925" y="478.156"/>
      <point x="203.084" y="469.707"/>
      <point x="203.084" y="462.432" type="curve" smooth="yes"/>
      <point x="203.084" y="459.601"/>
      <point x="204.671" y="452.982"/>
      <point x="206.174" y="448.718" type="curve" smooth="yes"/>
      <point x="206.174" y="448.718"/>
      <point x="236.08" y="375.416"/>
      <point x="267.083" y="294.426" type="curve" smooth="yes"/>
      <point x="291.698" y="230.121"/>
      <point x="305.856" y="200.688"/>
      <point x="319.413" y="166.408" type="curve"/>
      <point x="335.746" y="204.17"/>
      <point x="350.335" y="225.991"/>
      <point x="379.602" y="293.577" type="curve" smooth="yes"/>
      <point x="412.785" y="370.209"/>
      <point x="434.974" y="431.927"/>
      <point x="435" y="432" type="curve" smooth="yes"/>
      <point x="436.935" y="437.092"/>
      <point x="439.031" y="448.214"/>
      <point x="439.031" y="451.52" type="curve" smooth="yes"/>
      <point x="439.031" y="460.128"/>
      <point x="428.592" y="478.201"/>
      <point x="409.136" y="478.462" type="curve" smooth="yes"/>
      <point x="401.229" y="478.554" type="line"/>
      <point x="401.229" y="506.855" type="line"/>
      <point x="564.852" y="506.855" type="line"/>
      <point x="564.852" y="478.929" type="line"/>
      <point x="554.643" y="478.24" type="line" smooth="yes"/>
      <point x="542.325" y="477.409"/>
      <point x="533.322" y="461.217"/>
      <point x="530" y="452" type="curve" smooth="yes"/>
      <point x="529.165" y="449.682"/>
      <point x="498.531" y="382.899"/>
      <point x="459.733" y="289.695" type="curve" smooth="yes"/>
      <point x="426.369" y="209.545"/>
      <point x="385.186" y="119.896"/>
    </contour>
  </outline>
</glyph>
<glyph name="z" format="1">
  <advance width="618"/>
  <unicode hex="007A"/>
  <outline>
    <contour>
      <point x="278.955" y="501.526" type="curve" smooth="yes"/>
      <point x="368.823" y="501.526"/>
      <point x="544.904" y="504.078"/>
      <point x="546.092" y="504.078" type="curve" smooth="yes"/>
      <point x="557.364" y="504.078"/>
      <point x="561.435" y="495.07"/>
      <point x="561.435" y="488.699" type="curve" smooth="yes"/>
      <point x="561.435" y="485.376"/>
      <point x="559.317" y="475.752"/>
      <point x="555.812" y="471.73" type="curve" smooth="yes"/>
      <point x="550.065" y="465.139"/>
      <point x="456.646" y="348.4"/>
      <point x="374.338" y="249.955" type="curve" smooth="yes"/>
      <point x="310.338" y="173.543"/>
      <point x="256.87" y="106.636"/>
      <point x="231.129" y="75.5205" type="curve"/>
      <point x="261.046" y="75.0459"/>
      <point x="291.06" y="74.8184"/>
      <point x="333.981" y="74.8184" type="curve" smooth="yes"/>
      <point x="402.787" y="74.8184"/>
      <point x="464.103" y="75.4521"/>
      <point x="511.217" y="76.6826" type="curve" smooth="yes"/>
      <point x="516.302" y="76.8145"/>
      <point x="516.646" y="76.1514"/>
      <point x="519.86" y="80.4531" type="curve" smooth="yes"/>
      <point x="522.252" y="83.6543"/>
      <point x="525.525" y="90.5137"/>
      <point x="525.525" y="90.5137" type="curve"/>
      <point x="529.021" y="99.8184" type="line"/>
      <point x="553.545" y="88.9336" type="line"/>
      <point x="531.356" y="0.0107422" type="line"/>
      <point x="331.172" y="-0.420898" type="line"/>
      <point x="78.4463" y="-1.07715" type="line" smooth="yes"/>
      <point x="65.8984" y="-1.07715"/>
      <point x="61" y="11.4414"/>
      <point x="61" y="18.1982" type="curve" smooth="yes"/>
      <point x="61" y="24.2217"/>
      <point x="67.165" y="35.1357"/>
      <point x="72.04" y="40.4619" type="curve" smooth="yes"/>
      <point x="112.015" y="84.1338"/>
      <point x="200.237" y="188.12"/>
      <point x="277.639" y="277.102" type="curve" smooth="yes"/>
      <point x="340.952" y="349.888"/>
      <point x="385.657" y="407.382"/>
      <point x="410.795" y="440.005" type="curve"/>
      <point x="395.573" y="440.082"/>
      <point x="381.8" y="440.105"/>
      <point x="364.704" y="440.105" type="curve" smooth="yes"/>
      <point x="267.384" y="440.105"/>
      <point x="164.244" y="439.047"/>
      <point x="143.518" y="439.047" type="curve" smooth="yes"/>
      <point x="129.965" y="438.931"/>
      <point x="126.994" y="420.045"/>
      <point x="123.548" y="413.812" type="curve"/>
      <point x="98.29" y="427.071" type="line"/>
      <point x="119.289" y="503.049" type="line"/>
      <point x="134.317" y="502.965" type="line"/>
      <point x="134.317" y="502.965"/>
      <point x="201.533" y="501.526"/>
    </contour>
  </outline>
</glyph>
<glyph name="bar" format="1">
  <advance width="240"/>
  <unicode hex="007C"/>
  <outline>
    <contour>
      <point x="174" y="-42" type="line" smooth="yes"/>
      <point x="174" y="-58.125"/>
      <point x="131.406" y="-64.498"/>
      <point x="120" y="-64.498" type="curve" smooth="yes"/>
      <point x="108.683" y="-64.498"/>
      <point x="67" y="-57.7822"/>
      <point x="67" y="-42" type="curve" smooth="yes"/>
      <point x="67" y="731" type="line" smooth="yes"/>
      <point x="67" y="746.855"/>
      <point x="110.89" y="752.376"/>
      <point x="122" y="752.376" type="curve" smooth="yes"/>
      <point x="132.624" y="752.376"/>
      <point x="174" y="746.375"/>
      <point x="174" y="731" type="curve" smooth="yes"/>
    </contour>
  </outline>
</glyph>
<glyph name="asciitilde" format="1">
  <advance width="510"/>
  <unicode hex="007E"/>
  <outline>
    <contour>
      <point x="162" y="389.487" type="curve" smooth="yes"/>
      <point x="245.086" y="389.487"/>
      <point x="261.468" y="314.987"/>
      <point x="338" y="314.987" type="curve" smooth="yes"/>
      <point x="393.951" y="314.987"/>
      <point x="429.365" y="364.379"/>
      <point x="446" y="364.379" type="curve" smooth="yes"/>
      <point x="453.179" y="364.379"/>
      <point x="471.187" y="362.213"/>
      <point x="471.187" y="352" type="curve" smooth="yes"/>
      <point x="471.187" y="312.27"/>
      <point x="397.826" y="209.362"/>
      <point x="328" y="209.362" type="curve" smooth="yes"/>
      <point x="244.406" y="209.362"/>
      <point x="228.962" y="284.54"/>
      <point x="157" y="284.54" type="curve" smooth="yes"/>
      <point x="113.566" y="284.54"/>
      <point x="80.4268" y="243.855"/>
      <point x="54" y="243.855" type="curve" smooth="yes"/>
      <point x="43.918" y="243.855"/>
      <point x="28.8477" y="251.241"/>
      <point x="28.8477" y="261" type="curve" smooth="yes"/>
      <point x="28.8477" y="284.52"/>
      <point x="96.6895" y="389.487"/>
    </contour>
  </outline>
</glyph>
<glyph name="yen" format="1">
  <advance width="734"/>
  <unicode hex="00A5"/>
  <outline>
    <contour>
      <point x="297.362" y="49.0498" type="curve" smooth="yes"/>
      <point x="298.552" y="120.631"/>
      <point x="300.296" y="187.793"/>
      <point x="300.296" y="257" type="curve" smooth="yes"/>
      <point x="300.296" y="281.479"/>
      <point x="300.032" y="306.418"/>
      <point x="299.458" y="331" type="curve"/>
      <point x="119" y="331" type="line"/>
      <point x="119" y="375" type="line"/>
      <point x="298.066" y="375" type="line" smooth="yes"/>
      <point x="297.949" y="377.893"/>
      <point x="297.827" y="380.772"/>
      <point x="297.7" y="383.638" type="curve" smooth="yes"/>
      <point x="289.199" y="399.557"/>
      <point x="280.623" y="415.384"/>
      <point x="272.047" y="431" type="curve"/>
      <point x="119" y="431" type="line"/>
      <point x="119" y="475" type="line"/>
      <point x="247.565" y="475" type="line"/>
      <point x="196.31" y="565.94"/>
      <point x="147.537" y="645.079"/>
      <point x="117.212" y="686.29" type="curve" smooth="yes"/>
      <point x="108.805" y="697.714"/>
      <point x="102.646" y="702.853"/>
      <point x="94.4844" y="704.618" type="curve" smooth="yes"/>
      <point x="86.7939" y="706.282"/>
      <point x="79.001" y="706.8"/>
      <point x="70.9092" y="706.907" type="curve" smooth="yes"/>
      <point x="64.0029" y="706.998" type="line"/>
      <point x="63.999" y="736.854" type="line"/>
      <point x="312.498" y="736.854" type="line"/>
      <point x="312.498" y="706.999" type="line"/>
      <point x="305.592" y="706.907" type="line" smooth="yes"/>
      <point x="297.674" y="706.801"/>
      <point x="290.185" y="706.106"/>
      <point x="283.18" y="704.613" type="curve" smooth="yes"/>
      <point x="271.475" y="702.119"/>
      <point x="265.821" y="698.854"/>
      <point x="265.821" y="691.558" type="curve" smooth="yes"/>
      <point x="265.821" y="686.491"/>
      <point x="268.636" y="677.503"/>
      <point x="277.65" y="664.009" type="curve" smooth="yes"/>
      <point x="277.773" y="663.824" type="line"/>
      <point x="384.035" y="471.189" type="line"/>
      <point x="509.535" y="660.088" type="line"/>
      <point x="509.674" y="660.278" type="line" smooth="yes"/>
      <point x="523.685" y="679.419"/>
      <point x="527.836" y="690.828"/>
      <point x="527.836" y="696.009" type="curve" smooth="yes"/>
      <point x="527.836" y="701.127"/>
      <point x="524.099" y="703.104"/>
      <point x="512.77" y="705.54" type="curve" smooth="yes"/>
      <point x="506.376" y="706.914"/>
      <point x="509.719" y="706.717"/>
      <point x="501.205" y="706.831" type="curve" smooth="yes"/>
      <point x="484.299" y="706.923" type="line"/>
      <point x="484.299" y="736.777" type="line"/>
      <point x="676.497" y="736.777" type="line"/>
      <point x="676.497" y="706.921" type="line"/>
      <point x="669.59" y="706.83" type="line" smooth="yes"/>
      <point x="646.17" y="706.52"/>
      <point x="628.962" y="697.426"/>
      <point x="621.807" y="687.09" type="curve" smooth="yes"/>
      <point x="482.946" y="475" type="line"/>
      <point x="609" y="475" type="line"/>
      <point x="609" y="431" type="line"/>
      <point x="454.139" y="431" type="line"/>
      <point x="429.741" y="393.736" type="line" smooth="yes"/>
      <point x="429.463" y="387.491"/>
      <point x="429.207" y="381.246"/>
      <point x="428.975" y="375" type="curve"/>
      <point x="609" y="375" type="line"/>
      <point x="609" y="331" type="line"/>
      <point x="427.689" y="331" type="line"/>
      <point x="427.152" y="306.074"/>
      <point x="426.925" y="281.093"/>
      <point x="426.925" y="256" type="curve" smooth="yes"/>
      <point x="426.925" y="187.45"/>
      <point x="428.513" y="118.656"/>
      <point x="429.745" y="49.585" type="curve" smooth="yes"/>
      <point x="429.745" y="37.7354"/>
      <point x="435.958" y="28.5254"/>
      <point x="452.124" y="25.2559" type="curve" smooth="yes"/>
      <point x="459.574" y="23.749"/>
      <point x="467.255" y="23.0537"/>
      <point x="475.2" y="22.9463" type="curve" smooth="yes"/>
      <point x="482.106" y="22.8535" type="line"/>
      <point x="482.106" y="-7" type="line"/>
      <point x="245.057" y="-7" type="line"/>
      <point x="245.057" y="22.8535" type="line"/>
      <point x="251.963" y="22.9463" type="line" smooth="yes"/>
      <point x="259.91" y="23.0537"/>
      <point x="267.592" y="23.7461"/>
      <point x="275.037" y="25.2549" type="curve" smooth="yes"/>
      <point x="291.272" y="28.5449"/>
      <point x="297.362" y="39.0215"/>
    </contour>
  </outline>
</glyph>
<glyph name="dieresis" format="1">
  <advance width="447"/>
  <unicode hex="00A8"/>
  <outline>
    <contour>
      <point x="281.839" y="679.089" type="curve" smooth="yes"/>
      <point x="281.839" y="712.788"/>
      <point x="308.641" y="740.108"/>
      <point x="341.7" y="740.108" type="curve" smooth="yes"/>
      <point x="374.758" y="740.108"/>
      <point x="401.56" y="712.788"/>
      <point x="401.56" y="679.089" type="curve" smooth="yes"/>
      <point x="401.56" y="645.392"/>
      <point x="374.758" y="618.071"/>
      <point x="341.7" y="618.071" type="curve" smooth="yes"/>
      <point x="308.642" y="618.071"/>
      <point x="281.839" y="645.392"/>
    </contour>
    <contour>
      <point x="48.6797" y="679.089" type="curve" smooth="yes"/>
      <point x="48.6797" y="712.788"/>
      <point x="75.4814" y="740.108"/>
      <point x="108.541" y="740.108" type="curve" smooth="yes"/>
      <point x="141.599" y="740.108"/>
      <point x="168.4" y="712.788"/>
      <point x="168.4" y="679.089" type="curve" smooth="yes"/>
      <point x="168.4" y="645.392"/>
      <point x="141.599" y="618.071"/>
      <point x="108.541" y="618.071" type="curve" smooth="yes"/>
      <point x="75.4814" y="618.071"/>
      <point x="48.6797" y="645.392"/>
    </contour>
  </outline>
</glyph>
<glyph name="ordfeminine" format="1">
  <advance width="237"/>
  <unicode hex="00AA"/>
  <outline>
    <contour>
      <point x="204.646" y="579.464" type="line"/>
      <point x="206.697" y="568.467" type="line"/>
      <point x="207.572" y="563.773" type="line"/>
      <point x="203.196" y="561.866" type="line" smooth="yes"/>
      <point x="193.351" y="557.574"/>
      <point x="177.652" y="552.286"/>
      <point x="165.965" y="552.286" type="curve" smooth="yes"/>
      <point x="156.199" y="552.286"/>
      <point x="151.474" y="560.546"/>
      <point x="149.89" y="564.337" type="curve"/>
      <point x="132.448" y="555.837"/>
      <point x="116.606" y="551.167"/>
      <point x="97.5527" y="551.167" type="curve" smooth="yes"/>
      <point x="69.6807" y="551.167"/>
      <point x="36.6768" y="564.391"/>
      <point x="36.6768" y="598.93" type="curve" smooth="yes"/>
      <point x="36.6768" y="637.653"/>
      <point x="110.163" y="659.638"/>
      <point x="150.223" y="671.467" type="curve"/>
      <point x="150.024" y="680.073"/>
      <point x="149.614" y="687.176"/>
      <point x="148.968" y="689.502" type="curve" smooth="yes"/>
      <point x="144.139" y="705.778"/>
      <point x="134.979" y="715.189"/>
      <point x="116.384" y="715.189" type="curve" smooth="yes"/>
      <point x="98.5469" y="715.189"/>
      <point x="100.518" y="684.158"/>
      <point x="70.1396" y="684.158" type="curve" smooth="yes"/>
      <point x="62.7656" y="684.158"/>
      <point x="47.5254" y="688.157"/>
      <point x="47.5254" y="701.066" type="curve" smooth="yes"/>
      <point x="47.5254" y="704.89"/>
      <point x="48.9287" y="708.168"/>
      <point x="51.1611" y="710.7" type="curve" smooth="yes"/>
      <point x="71.3662" y="733.611"/>
      <point x="97.4062" y="737.36"/>
      <point x="117.443" y="737.36" type="curve" smooth="yes"/>
      <point x="169.693" y="737.36"/>
      <point x="193.67" y="703.606"/>
      <point x="193.67" y="682.487" type="curve" smooth="yes"/>
      <point x="193.67" y="583.178" type="line" smooth="yes"/>
      <point x="195.882" y="583.777"/>
      <point x="195.792" y="583.757"/>
      <point x="197.089" y="584.13" type="curve" smooth="yes"/>
      <point x="203.435" y="585.955" type="line"/>
    </contour>
    <contour>
      <point x="112.521" y="578.711" type="curve" smooth="yes"/>
      <point x="127.489" y="578.711"/>
      <point x="138.372" y="582.983"/>
      <point x="146.97" y="588.997" type="curve"/>
      <point x="146.97" y="644.237" type="line"/>
      <point x="110.394" y="632.205"/>
      <point x="87.1816" y="618.094"/>
      <point x="87.1816" y="602.396" type="curve" smooth="yes"/>
      <point x="87.1816" y="587.387"/>
      <point x="93.9639" y="578.711"/>
    </contour>
  </outline>
</glyph>
<glyph name="macron" format="1">
  <advance width="428"/>
  <unicode hex="00AF"/>
  <outline>
    <contour>
      <point x="70.1455" y="507.419" type="line"/>
      <point x="70.1455" y="507.419"/>
      <point x="78.5156" y="577"/>
      <point x="102" y="577" type="curve" smooth="yes"/>
      <point x="367.132" y="577" type="line"/>
      <point x="367.132" y="569.284" type="line" smooth="yes"/>
      <point x="367.132" y="565.51"/>
      <point x="361.778" y="499"/>
      <point x="335" y="499" type="curve" smooth="yes"/>
      <point x="68.4023" y="499" type="line"/>
    </contour>
  </outline>
</glyph>
<glyph name="uni00B2" format="1">
  <advance width="267"/>
  <unicode hex="00B2"/>
  <outline>
    <contour>
      <point x="78.8467" y="580.693" type="curve"/>
      <point x="62.6289" y="590.96" type="line"/>
      <point x="65.5264" y="596.151"/>
      <point x="89.3896" y="646.58"/>
      <point x="149.46" y="646.58" type="curve" smooth="yes"/>
      <point x="210.413" y="646.58"/>
      <point x="232.41" y="620.586"/>
      <point x="232.41" y="576.9" type="curve" smooth="yes"/>
      <point x="232.41" y="529.571"/>
      <point x="132.246" y="442.528"/>
      <point x="92.4648" y="396.76" type="curve"/>
      <point x="196.22" y="396.76" type="line" smooth="yes"/>
      <point x="222.842" y="396.76"/>
      <point x="230.446" y="406.496"/>
      <point x="235.454" y="422.522" type="curve"/>
      <point x="247.236" y="420.409" type="line"/>
      <point x="217.624" y="360" type="line"/>
      <point x="20.7402" y="360" type="line"/>
      <point x="20.7402" y="379.217" type="line"/>
      <point x="22.3887" y="381.172" type="line" smooth="yes"/>
      <point x="73.2939" y="441.533"/>
      <point x="175.6" y="547"/>
      <point x="175.6" y="577.802" type="curve"/>
      <point x="175.165" y="610.235"/>
      <point x="159.601" y="622.49"/>
      <point x="134.681" y="622.49" type="curve" smooth="yes"/>
      <point x="112.805" y="622.49"/>
      <point x="94.9912" y="604.003"/>
    </contour>
  </outline>
</glyph>
<glyph name="paragraph" format="1">
  <advance width="533"/>
  <unicode hex="00B6"/>
  <outline>
    <contour>
      <point x="223.025" y="-3" type="line"/>
      <point x="224.212" y="109.719"/>
      <point x="224.987" y="269.698"/>
      <point x="224.987" y="382" type="curve" smooth="yes"/>
      <point x="224.987" y="391.644"/>
      <point x="224.981" y="391.293"/>
      <point x="224.971" y="400.924" type="curve" smooth="yes"/>
      <point x="224.963" y="408.112" type="line"/>
      <point x="217.777" y="407.913" type="line" smooth="yes"/>
      <point x="194.328" y="407.264"/>
      <point x="160.179" y="405.881"/>
      <point x="148.393" y="405.881" type="curve" smooth="yes"/>
      <point x="85.5752" y="405.881"/>
      <point x="27.8711" y="470.393"/>
      <point x="27.8711" y="574.736" type="curve" smooth="yes"/>
      <point x="27.8711" y="664.664"/>
      <point x="102.968" y="733.683"/>
      <point x="178.393" y="733.683" type="curve" smooth="yes"/>
      <point x="184.005" y="733.683"/>
      <point x="205.728" y="733.534"/>
      <point x="218.982" y="733.333" type="curve"/>
      <point x="493.997" y="733.333" type="line"/>
      <point x="493.997" y="721.224" type="line"/>
      <point x="488.558" y="720.897"/>
      <point x="481.321" y="720.105"/>
      <point x="475.236" y="718.872" type="curve" smooth="yes"/>
      <point x="453.794" y="714.528"/>
      <point x="442.351" y="699.105"/>
      <point x="441.778" y="683.111" type="curve"/>
      <point x="439.741" y="586.729"/>
      <point x="438.915" y="490.465"/>
      <point x="438.915" y="394" type="curve" smooth="yes"/>
      <point x="438.915" y="281.148"/>
      <point x="440.021" y="113.646"/>
      <point x="441.677" y="-3" type="curve"/>
      <point x="360" y="-3" type="line"/>
      <point x="360" y="707" type="line"/>
      <point x="306" y="707" type="line"/>
      <point x="306" y="-3" type="line"/>
    </contour>
  </outline>
</glyph>
<glyph name="onequarter" format="1">
  <advance width="507"/>
  <unicode hex="00BC"/>
  <outline>
    <contour>
      <point x="356.06" y="259.987" type="line"/>
      <point x="335.994" y="232.734"/>
      <point x="319.963" y="212.944"/>
      <point x="300.969" y="190.774" type="curve"/>
      <point x="324.368" y="190.76"/>
      <point x="341.85" y="190.727"/>
      <point x="356.06" y="190.714" type="curve"/>
    </contour>
    <contour>
      <point x="370.641" y="338.447" type="curve" smooth="yes"/>
      <point x="375.769" y="345.975"/>
      <point x="381.159" y="349.58"/>
      <point x="387.529" y="349.58" type="curve" smooth="yes"/>
      <point x="391.354" y="349.58"/>
      <point x="413.379" y="348.188"/>
      <point x="413.379" y="335.72" type="curve" smooth="yes"/>
      <point x="413.379" y="190.33" type="line"/>
      <point x="427.692" y="190.517"/>
      <point x="429.279" y="191.121"/>
      <point x="438.84" y="192.714" type="curve" smooth="yes"/>
      <point x="447.342" y="194.131" type="line"/>
      <point x="445.725" y="159.22" type="line"/>
      <point x="412.399" y="159.22" type="line"/>
      <point x="412.399" y="73.9199" type="line" smooth="yes"/>
      <point x="412.399" y="70.8379"/>
      <point x="420.179" y="63"/>
      <point x="412.46" y="63" type="curve" smooth="yes"/>
      <point x="366" y="63" type="line" smooth="yes"/>
      <point x="359.983" y="63"/>
      <point x="356.06" y="68.8521"/>
      <point x="356.06" y="72.9395" type="curve" smooth="yes"/>
      <point x="356.06" y="159.22" type="line"/>
      <point x="242.45" y="159.22" type="line" smooth="yes"/>
      <point x="237.662" y="159.22"/>
      <point x="231.781" y="160.679"/>
      <point x="231.781" y="167.649" type="curve" smooth="yes"/>
      <point x="231.781" y="171.448"/>
      <point x="233.339" y="174.882"/>
      <point x="235.627" y="177.551" type="curve"/>
      <point x="280.756" y="232.001"/>
      <point x="332.803" y="284.601"/>
    </contour>
    <contour>
      <point x="146.62" y="321.84" type="line"/>
      <point x="146.62" y="310" type="line"/>
      <point x="55" y="310" type="line"/>
      <point x="55" y="321.84" type="line"/>
      <point x="62" y="321.84" type="line" smooth="yes"/>
      <point x="72.2217" y="321.84"/>
      <point x="72.6396" y="333.366"/>
      <point x="72.6396" y="335.13" type="curve" smooth="yes"/>
      <point x="72.6396" y="541.68" type="line" smooth="yes"/>
      <point x="72.6396" y="546.145"/>
      <point x="72.6348" y="551.858"/>
      <point x="71.5693" y="551.858" type="curve" smooth="yes"/>
      <point x="66.3223" y="551.858"/>
      <point x="59.9834" y="550"/>
      <point x="52.5498" y="548.837" type="curve"/>
      <point x="52.5498" y="561.335" type="line"/>
      <point x="71.1875" y="569.103"/>
      <point x="97.9321" y="581.273"/>
      <point x="111.793" y="594.62" type="curve" smooth="yes"/>
      <point x="114.235" y="596.975"/>
      <point x="117.227" y="597.626"/>
      <point x="119.59" y="597.626" type="curve" smooth="yes"/>
      <point x="125.003" y="597.626"/>
      <point x="128.979" y="593.616"/>
      <point x="128.979" y="585.659" type="curve" smooth="yes"/>
      <point x="128.979" y="335.13" type="line" smooth="yes"/>
      <point x="128.979" y="333.03"/>
      <point x="129.565" y="321.84"/>
      <point x="139.62" y="321.84" type="curve" smooth="yes"/>
    </contour>
    <contour>
      <point x="355.571" y="651" type="line"/>
      <point x="410.064" y="651" type="line"/>
      <point x="93.4287" y="-17" type="line"/>
      <point x="38.9354" y="-17" type="line"/>
    </contour>
  </outline>
</glyph>
<glyph name="onehalf" format="1">
  <advance width="555"/>
  <unicode hex="00BD"/>
  <outline>
    <contour>
      <point x="313.847" y="283.693" type="curve"/>
      <point x="297.629" y="293.96" type="line"/>
      <point x="300.526" y="299.151"/>
      <point x="324.39" y="349.58"/>
      <point x="384.46" y="349.58" type="curve" smooth="yes"/>
      <point x="445.413" y="349.58"/>
      <point x="467.41" y="323.586"/>
      <point x="467.41" y="279.9" type="curve" smooth="yes"/>
      <point x="467.41" y="232.572"/>
      <point x="367.246" y="145.528"/>
      <point x="327.465" y="99.7598" type="curve"/>
      <point x="431.22" y="99.7598" type="line" smooth="yes"/>
      <point x="457.842" y="99.7598"/>
      <point x="465.446" y="109.496"/>
      <point x="470.454" y="125.522" type="curve"/>
      <point x="482.236" y="123.409" type="line"/>
      <point x="452.624" y="63" type="line"/>
      <point x="255.74" y="63" type="line"/>
      <point x="255.74" y="82.2168" type="line"/>
      <point x="257.389" y="84.1719" type="line" smooth="yes"/>
      <point x="308.294" y="144.533"/>
      <point x="410.6" y="250"/>
      <point x="410.6" y="280.802" type="curve"/>
      <point x="410.165" y="313.235"/>
      <point x="394.601" y="325.49"/>
      <point x="369.681" y="325.49" type="curve" smooth="yes"/>
      <point x="347.805" y="325.49"/>
      <point x="329.991" y="307.003"/>
    </contour>
    <contour>
      <point x="146.62" y="321.84" type="line"/>
      <point x="146.62" y="310" type="line"/>
      <point x="55" y="310" type="line"/>
      <point x="55" y="321.84" type="line"/>
      <point x="62" y="321.84" type="line" smooth="yes"/>
      <point x="72.2217" y="321.84"/>
      <point x="72.6396" y="333.366"/>
      <point x="72.6396" y="335.13" type="curve" smooth="yes"/>
      <point x="72.6396" y="542.68" type="line" smooth="yes"/>
      <point x="72.6396" y="547.145"/>
      <point x="72.6348" y="551.858"/>
      <point x="71.5693" y="551.858" type="curve" smooth="yes"/>
      <point x="66.3291" y="551.858"/>
      <point x="61.043" y="549.837"/>
      <point x="52.5498" y="549.837" type="curve" smooth="yes"/>
      <point x="52.5498" y="562.335" type="line"/>
      <point x="56.8574" y="564.131" type="line" smooth="yes"/>
      <point x="73.7939" y="571.188"/>
      <point x="100.096" y="581.394"/>
      <point x="112.793" y="593.62" type="curve" smooth="yes"/>
      <point x="115.235" y="595.975"/>
      <point x="118.227" y="596.626"/>
      <point x="120.59" y="596.626" type="curve" smooth="yes"/>
      <point x="126.003" y="596.626"/>
      <point x="128.979" y="593.616"/>
      <point x="128.979" y="585.659" type="curve" smooth="yes"/>
      <point x="128.979" y="335.13" type="line" smooth="yes"/>
      <point x="128.979" y="333.03"/>
      <point x="129.565" y="321.84"/>
      <point x="139.62" y="321.84" type="curve" smooth="yes"/>
    </contour>
    <contour>
      <point x="355.571" y="651" type="line"/>
      <point x="410.064" y="651" type="line"/>
      <point x="93.4287" y="-17" type="line"/>
      <point x="38.9354" y="-17" type="line"/>
    </contour>
  </outline>
</glyph>
<glyph name="multiply" format="1">
  <advance width="423"/>
  <unicode hex="00D7"/>
  <outline>
    <contour>
      <point x="210.596" y="237.434" type="line" smooth="yes"/>
      <point x="114.611" y="146.889" type="line" smooth="yes"/>
      <point x="111.633" y="144.08"/>
      <point x="108.318" y="142.957"/>
      <point x="104.916" y="142.957" type="curve" smooth="yes"/>
      <point x="95.4131" y="142.957"/>
      <point x="82.958" y="153.966"/>
      <point x="77.4053" y="159.203" type="curve" smooth="yes"/>
      <point x="72.0176" y="164.284"/>
      <point x="61.0596" y="179.555"/>
      <point x="61.0596" y="189.29" type="curve" smooth="yes"/>
      <point x="61.0596" y="192.455"/>
      <point x="62.2168" y="195.511"/>
      <point x="65.0986" y="198.228" type="curve" smooth="yes"/>
      <point x="159.44" y="287.209" type="line" smooth="yes"/>
      <point x="160.126" y="287.855"/>
      <point x="160.736" y="288.956"/>
      <point x="160.86" y="289.273" type="curve"/>
      <point x="73.2148" y="371.937" type="line" smooth="yes"/>
      <point x="71.8154" y="374.576"/>
      <point x="70.7344" y="377.626"/>
      <point x="70.7344" y="380.658" type="curve" smooth="yes"/>
      <point x="70.7344" y="390.592"/>
      <point x="81.6475" y="405.02"/>
      <point x="88.6816" y="411.653" type="curve" smooth="yes"/>
      <point x="94.4277" y="417.073"/>
      <point x="107.27" y="429.033"/>
      <point x="116.359" y="429.033" type="curve" smooth="yes"/>
      <point x="120.066" y="429.033"/>
      <point x="123.711" y="427.795"/>
      <point x="127.018" y="424.676" type="curve" smooth="yes"/>
      <point x="211.21" y="341.61" type="line" smooth="yes"/>
      <point x="212.224" y="340.597"/>
      <point x="212.734" y="340.182"/>
      <point x="213.144" y="340.182" type="curve" smooth="yes"/>
      <point x="213.624" y="340.182"/>
      <point x="213.964" y="340.759"/>
      <point x="214.814" y="341.61" type="curve" smooth="yes"/>
      <point x="304.464" y="427.877" type="line"/>
      <point x="306.093" y="428.822"/>
      <point x="308.348" y="429.845"/>
      <point x="311.807" y="429.845" type="curve" smooth="yes"/>
      <point x="323.01" y="429.845"/>
      <point x="333.217" y="417.8"/>
      <point x="340.727" y="410.716" type="curve" smooth="yes"/>
      <point x="347.81" y="404.033"/>
      <point x="356.169" y="390.183"/>
      <point x="356.169" y="382.055" type="curve" smooth="yes"/>
      <point x="356.169" y="379.029"/>
      <point x="355.767" y="377.04"/>
      <point x="354.226" y="375.076" type="curve" smooth="yes"/>
      <point x="266.584" y="290.212" type="line" smooth="yes"/>
      <point x="265.955" y="289.618"/>
      <point x="265.613" y="289.272"/>
      <point x="265.613" y="289.272" type="curve"/>
      <point x="353.235" y="206.68" type="line" smooth="yes"/>
      <point x="355.77" y="204.289"/>
      <point x="356.808" y="201.627"/>
      <point x="356.808" y="198.856" type="curve" smooth="yes"/>
      <point x="356.808" y="188.733"/>
      <point x="344.085" y="173.784"/>
      <point x="338.778" y="168.778" type="curve" smooth="yes"/>
      <point x="334.569" y="164.81"/>
      <point x="318.623" y="149.263"/>
      <point x="309.366" y="149.263" type="curve" smooth="yes"/>
      <point x="306.306" y="149.263"/>
      <point x="303.239" y="150.346"/>
      <point x="300.341" y="153.082" type="curve" smooth="yes"/>
      <point x="210.919" y="237.434" type="line" smooth="yes"/>
    </contour>
  </outline>
</glyph>
<glyph name="divide" format="1">
  <advance width="427"/>
  <unicode hex="00F7"/>
  <outline>
    <contour>
      <point x="207.85" y="106" type="curve" smooth="yes"/>
      <point x="177.251" y="106"/>
      <point x="152.693" y="130.346"/>
      <point x="152.693" y="160.268" type="curve" smooth="yes"/>
      <point x="152.693" y="190.189"/>
      <point x="177.251" y="214.536"/>
      <point x="207.85" y="214.536" type="curve" smooth="yes"/>
      <point x="237.692" y="214.536"/>
      <point x="262.117" y="190.109"/>
      <point x="262.117" y="160.268" type="curve" smooth="yes"/>
      <point x="262.117" y="130.427"/>
      <point x="237.693" y="106"/>
    </contour>
    <contour>
      <point x="207.85" y="380" type="curve" smooth="yes"/>
      <point x="177.251" y="380"/>
      <point x="152.693" y="404.346"/>
      <point x="152.693" y="434.268" type="curve" smooth="yes"/>
      <point x="152.693" y="464.189"/>
      <point x="177.251" y="488.536"/>
      <point x="207.85" y="488.536" type="curve" smooth="yes"/>
      <point x="237.692" y="488.536"/>
      <point x="262.117" y="464.109"/>
      <point x="262.117" y="434.268" type="curve" smooth="yes"/>
      <point x="262.117" y="404.427"/>
      <point x="237.693" y="380"/>
    </contour>
    <contour>
      <point x="75.8643" y="249" type="line"/>
      <point x="74.7861" y="249.359" type="line" smooth="yes"/>
      <point x="62.7568" y="253.369"/>
      <point x="58" y="278.217"/>
      <point x="58" y="299" type="curve" smooth="yes"/>
      <point x="58" y="318.826"/>
      <point x="62.8525" y="347"/>
      <point x="77" y="347" type="curve" smooth="yes"/>
      <point x="344" y="347" type="line" smooth="yes"/>
      <point x="356.676" y="347"/>
      <point x="360" y="314.131"/>
      <point x="360" y="296" type="curve" smooth="yes"/>
      <point x="360" y="279.266"/>
      <point x="356.497" y="249"/>
      <point x="344" y="249" type="curve" smooth="yes"/>
    </contour>
  </outline>
</glyph>
<glyph name="Hbar" format="1">
  <advance width="857"/>
  <unicode hex="0126"/>
  <outline>
    <contour>
      <point x="50.6816" y="552.406" type="curve" smooth="yes"/>
      <point x="814.813" y="552.406" type="line"/>
      <point x="814.813" y="545.816" type="line" smooth="yes"/>
      <point x="814.813" y="542"/>
      <point x="811.354" y="497.46"/>
      <point x="787.682" y="497.46" type="curve" smooth="yes"/>
      <point x="22" y="497.46" type="line"/>
      <point x="23.8408" y="505.784" type="line" smooth="yes"/>
      <point x="23.8408" y="505.784"/>
      <point x="29.3379" y="552.406"/>
    </contour>
    <component base="H"/>
  </outline>
</glyph>
<glyph name="lslash" format="1">
  <advance width="325"/>
  <unicode hex="0142"/>
  <outline>
    <contour>
      <point x="46" y="427" type="line"/>
      <point x="264" y="598" type="line"/>
      <point x="264" y="541" type="line"/>
      <point x="46" y="370" type="line"/>
    </contour>
    <component base="l"/>
    <component base="l"/>
  </outline>
</glyph>
<glyph name="longs" format="1">
  <advance width="546"/>
  <unicode hex="017F"/>
  <outline>
    <contour>
      <point x="226.751" y="547.552" type="line"/>
      <point x="223.793" y="43.8633" type="line" smooth="yes"/>
      <point x="223.793" y="43.7969" type="line" smooth="yes"/>
      <point x="223.793" y="28.8145"/>
      <point x="235.329" y="19.0635"/>
      <point x="254.057" y="18.8242" type="curve" smooth="yes"/>
      <point x="260.964" y="18.7354" type="line"/>
      <point x="260.964" y="0" type="line"/>
      <point x="68.8408" y="0" type="line"/>
      <point x="68.8408" y="18.6689" type="line"/>
      <point x="75.748" y="18.7578" type="line" smooth="yes"/>
      <point x="95.5752" y="19.0117"/>
      <point x="104.356" y="29.7422"/>
      <point x="105.067" y="43.7588" type="curve"/>
      <point x="105.067" y="456.514" type="line"/>
      <point x="88.7646" y="456.593"/>
      <point x="79.71" y="456.882"/>
      <point x="64" y="456.882" type="curve" smooth="yes"/>
      <point x="57.3525" y="456.882"/>
      <point x="48" y="458.567"/>
      <point x="48" y="468.013" type="curve" smooth="yes"/>
      <point x="48" y="475.43"/>
      <point x="53.1719" y="478.41"/>
      <point x="57.2021" y="482.102" type="curve" smooth="yes"/>
      <point x="65.8223" y="489.996"/>
      <point x="74.916" y="494.393"/>
      <point x="82.8691" y="498.261" type="curve" smooth="yes"/>
      <point x="91.3516" y="502.502"/>
      <point x="100.646" y="507.629"/>
      <point x="105.064" y="509.433" type="curve"/>
      <point x="105.059" y="518.299"/>
      <point x="105.053" y="533.408"/>
      <point x="105.053" y="546" type="curve" smooth="yes"/>
      <point x="105.053" y="546.22" type="line" smooth="yes"/>
      <point x="105.053" y="554.163"/>
      <point x="105.056" y="563.42"/>
      <point x="105.684" y="570.962" type="curve" smooth="yes"/>
      <point x="114.872" y="681.312"/>
      <point x="174.162" y="756.188"/>
      <point x="343.997" y="756.188" type="curve" smooth="yes"/>
      <point x="374.272" y="756.188"/>
      <point x="497.195" y="737.102"/>
      <point x="497.195" y="677" type="curve" smooth="yes"/>
      <point x="497.195" y="633.487"/>
      <point x="468.964" y="622.073"/>
      <point x="434" y="622.073" type="curve" smooth="yes"/>
      <point x="369.188" y="622.073"/>
      <point x="391.624" y="725.104"/>
      <point x="321.382" y="725.104" type="curve" smooth="yes"/>
      <point x="215.574" y="725.104"/>
      <point x="229.409" y="648.157"/>
      <point x="227.269" y="575.218" type="curve" smooth="yes"/>
    </contour>
  </outline>
</glyph>
<glyph name="gravecomb" format="1">
  <advance width="285"/>
  <unicode hex="0300"/>
  <outline>
    <contour>
      <point x="43.502" y="718.074" type="line" smooth="yes"/>
      <point x="47.5986" y="740.283"/>
      <point x="78.4912" y="760.905"/>
      <point x="97.8447" y="760.905" type="curve" smooth="yes"/>
      <point x="111.485" y="760.905"/>
      <point x="124.599" y="755.984"/>
      <point x="134.475" y="745.408" type="curve"/>
      <point x="150.214" y="729.671"/>
      <point x="203.088" y="632.698"/>
      <point x="238.873" y="581.247" type="curve" smooth="yes"/>
      <point x="246.247" y="570.644" type="line"/>
      <point x="212.838" y="569.935" type="line"/>
      <point x="210.969" y="571.191" type="line" smooth="yes"/>
      <point x="158.479" y="606.498"/>
      <point x="90.7852" y="641.585"/>
      <point x="72.3467" y="662.022" type="curve" smooth="yes"/>
      <point x="59.9434" y="675.771"/>
      <point x="43.3857" y="696.294"/>
      <point x="43.3857" y="716.805" type="curve" smooth="yes"/>
      <point x="43.3857" y="717.445" type="line"/>
    </contour>
  </outline>
</glyph>
<glyph name="uni0317" format="1">
  <advance width="285"/>
  <unicode hex="0317"/>
  <outline>
    <contour>
      <point x="239.208" y="11.9746" type="line" smooth="yes"/>
      <point x="239.208" y="-8.55707"/>
      <point x="219.334" y="-28.7201"/>
      <point x="206.247" y="-41.8072" type="curve" smooth="yes"/>
      <point x="189.809" y="-58.245"/>
      <point x="124.114" y="-98.3324"/>
      <point x="71.6246" y="-133.638" type="curve" smooth="yes"/>
      <point x="69.7563" y="-134.895" type="line"/>
      <point x="46.3469" y="-134.186" type="line"/>
      <point x="53.7211" y="-123.583" type="line" smooth="yes"/>
      <point x="89.6929" y="-71.8631"/>
      <point x="141.901" y="14.3608"/>
      <point x="158.491" y="30.9499" type="curve"/>
      <point x="158.491" y="30.9499"/>
      <point x="188.113" y="46.0752"/>
      <point x="194.749" y="46.0752" type="curve" smooth="yes"/>
      <point x="214.104" y="46.0752"/>
      <point x="234.995" y="35.4547"/>
      <point x="239.092" y="13.2444" type="curve" smooth="yes"/>
      <point x="239.208" y="12.6148" type="line"/>
    </contour>
  </outline>
</glyph>
<glyph name="emdash" format="1">
  <advance width="697"/>
  <unicode hex="2014"/>
  <outline>
    <contour>
      <point x="77" y="276" type="line"/>
      <point x="71" y="278"/>
      <point x="68" y="289"/>
      <point x="68" y="300" type="curve" smooth="yes"/>
      <point x="68" y="311"/>
      <point x="71" y="320"/>
      <point x="77" y="320" type="curve"/>
      <point x="611" y="320" type="line"/>
      <point x="615" y="320"/>
      <point x="617" y="307"/>
      <point x="617" y="295" type="curve" smooth="yes"/>
      <point x="617" y="285"/>
      <point x="616" y="276"/>
      <point x="611" y="276" type="curve"/>
    </contour>
  </outline>
</glyph>
<glyph name="quoteleft" format="1">
  <advance width="236"/>
  <unicode hex="2018"/>
  <outline>
    <contour>
      <point x="166.71" y="597.761" type="curve" smooth="yes"/>
      <point x="166.71" y="564.777"/>
      <point x="141.697" y="539.389"/>
      <point x="105.601" y="539.389" type="curve" smooth="yes"/>
      <point x="76.7916" y="539.389"/>
      <point x="45.0919" y="557.382"/>
      <point x="37.9858" y="591.064" type="curve" smooth="yes"/>
      <point x="34.2872" y="608.596"/>
      <point x="32.564" y="625.321"/>
      <point x="32.564" y="641.135" type="curve" smooth="yes"/>
      <point x="32.564" y="729.389"/>
      <point x="86.4211" y="788.867"/>
      <point x="146.597" y="801.562" type="curve" smooth="yes"/>
      <point x="154.964" y="803.327" type="line"/>
      <point x="156.168" y="794.861" type="line"/>
      <point x="159.578" y="770.893" type="line"/>
      <point x="160.633" y="763.484" type="line"/>
      <point x="153.31" y="761.939" type="line" smooth="yes"/>
      <point x="115.274" y="753.915"/>
      <point x="97.9237" y="709.568"/>
      <point x="97.9237" y="679.594" type="curve" smooth="yes"/>
      <point x="97.9237" y="675.209"/>
      <point x="98.3115" y="671.286"/>
      <point x="98.9781" y="668.126" type="curve" smooth="yes"/>
      <point x="101.668" y="655.377"/>
      <point x="166.71" y="651.563"/>
    </contour>
  </outline>
</glyph>
<glyph name="quoteright" format="1">
  <advance width="246"/>
  <unicode hex="2019"/>
  <outline>
    <contour>
      <point x="66.677" y="684.822" type="curve" smooth="yes"/>
      <point x="66.677" y="717.776"/>
      <point x="91.7397" y="743.177"/>
      <point x="127.873" y="743.177" type="curve" smooth="yes"/>
      <point x="156.533" y="743.177"/>
      <point x="188.044" y="725.425"/>
      <point x="195.352" y="691.992" type="curve" smooth="yes"/>
      <point x="199.305" y="673.905"/>
      <point x="201.143" y="656.664"/>
      <point x="201.143" y="640.386" type="curve" smooth="yes"/>
      <point x="201.143" y="552.996"/>
      <point x="147.993" y="493.764"/>
      <point x="88.2737" y="480.711" type="curve" smooth="yes"/>
      <point x="79.9203" y="478.885" type="line"/>
      <point x="78.6537" y="487.341" type="line"/>
      <point x="75.0677" y="511.283" type="line"/>
      <point x="73.959" y="518.685" type="line"/>
      <point x="81.2712" y="520.283" type="line" smooth="yes"/>
      <point x="119.001" y="528.53"/>
      <point x="136.059" y="572.457"/>
      <point x="136.059" y="602.468" type="curve" smooth="yes"/>
      <point x="136.059" y="607.08"/>
      <point x="135.638" y="611.199"/>
      <point x="134.919" y="614.489" type="curve" smooth="yes"/>
      <point x="132.141" y="627.202"/>
      <point x="66.677" y="630.684"/>
    </contour>
  </outline>
</glyph>
<glyph name="quotereversed" format="1">
  <advance width="236"/>
  <unicode hex="201B"/>
  <outline>
    <contour>
      <point x="166.703" y="718.085" type="curve" smooth="yes"/>
      <point x="166.703" y="664.07"/>
      <point x="101.579" y="660.54"/>
      <point x="98.8543" y="647.728" type="curve" smooth="yes"/>
      <point x="98.1757" y="644.538"/>
      <point x="97.7805" y="640.571"/>
      <point x="97.7805" y="636.135" type="curve" smooth="yes"/>
      <point x="97.7805" y="606.151"/>
      <point x="115.064" y="561.9"/>
      <point x="153.03" y="553.825" type="curve" smooth="yes"/>
      <point x="160.35" y="552.268" type="line"/>
      <point x="159.284" y="544.86" type="line"/>
      <point x="155.835" y="520.899" type="line"/>
      <point x="154.617" y="512.434" type="line"/>
      <point x="146.253" y="514.213" type="line" smooth="yes"/>
      <point x="86.1799" y="526.99"/>
      <point x="32.4838" y="586.413"/>
      <point x="32.4838" y="674.47" type="curve" smooth="yes"/>
      <point x="32.4838" y="690.39"/>
      <point x="34.2328" y="707.231"/>
      <point x="37.9885" y="724.89" type="curve" smooth="yes"/>
      <point x="45.1405" y="758.515"/>
      <point x="76.7964" y="776.453"/>
      <point x="105.572" y="776.453" type="curve" smooth="yes"/>
      <point x="141.677" y="776.453"/>
      <point x="166.703" y="751.064"/>
    </contour>
  </outline>
</glyph>
<glyph name="quotedblleft" format="1">
  <advance width="422"/>
  <unicode hex="201C"/>
  <outline>
    <contour>
      <point x="358.34" y="598.003" type="curve" smooth="yes"/>
      <point x="358.34" y="565.037"/>
      <point x="333.297" y="539.642"/>
      <point x="297.179" y="539.642" type="curve" smooth="yes"/>
      <point x="268.456" y="539.642"/>
      <point x="236.867" y="557.494"/>
      <point x="229.643" y="591.031" type="curve" smooth="yes"/>
      <point x="225.797" y="608.887"/>
      <point x="224.008" y="625.912"/>
      <point x="224.008" y="641.996" type="curve" smooth="yes"/>
      <point x="224.008" y="729.747"/>
      <point x="277.453" y="789.083"/>
      <point x="337.363" y="801.987" type="curve" smooth="yes"/>
      <point x="345.722" y="803.787" type="line"/>
      <point x="346.963" y="795.327" type="line"/>
      <point x="350.476" y="771.374" type="line"/>
      <point x="351.562" y="763.968" type="line"/>
      <point x="344.245" y="762.392" type="line" smooth="yes"/>
      <point x="306.386" y="754.238"/>
      <point x="289.207" y="710.136"/>
      <point x="289.207" y="680.14" type="curve" smooth="yes"/>
      <point x="289.207" y="675.623"/>
      <point x="289.614" y="671.587"/>
      <point x="290.311" y="668.35" type="curve" smooth="yes"/>
      <point x="293.052" y="655.623"/>
      <point x="358.34" y="652"/>
    </contour>
    <contour>
      <point x="166.737" y="597.45" type="curve" smooth="yes"/>
      <point x="166.737" y="564.436"/>
      <point x="141.738" y="539.064"/>
      <point x="105.69" y="539.064" type="curve" smooth="yes"/>
      <point x="76.7696" y="539.064"/>
      <point x="44.9289" y="557.24"/>
      <point x="37.9769" y="591.107" type="curve" smooth="yes"/>
      <point x="34.4639" y="608.22"/>
      <point x="32.8245" y="624.555"/>
      <point x="32.8245" y="640.018" type="curve" smooth="yes"/>
      <point x="32.8245" y="728.926"/>
      <point x="87.215" y="788.588"/>
      <point x="147.731" y="801.01" type="curve" smooth="yes"/>
      <point x="156.108" y="802.73" type="line"/>
      <point x="157.266" y="794.258" type="line"/>
      <point x="160.545" y="770.272" type="line"/>
      <point x="161.559" y="762.857" type="line"/>
      <point x="154.228" y="761.352" type="line" smooth="yes"/>
      <point x="115.965" y="753.497"/>
      <point x="98.3941" y="708.84"/>
      <point x="98.3941" y="678.898" type="curve" smooth="yes"/>
      <point x="98.3941" y="674.679"/>
      <point x="98.7583" y="670.9"/>
      <point x="99.3874" y="667.835" type="curve" smooth="yes"/>
      <point x="102.014" y="655.04"/>
      <point x="166.737" y="651.032"/>
    </contour>
  </outline>
</glyph>
<glyph name="quotedblright" format="1">
  <advance width="426"/>
  <unicode hex="201D"/>
  <outline>
    <contour>
      <point x="66.6117" y="685.553" type="curve" smooth="yes"/>
      <point x="66.6117" y="718.567"/>
      <point x="91.611" y="743.939"/>
      <point x="127.66" y="743.939" type="curve" smooth="yes"/>
      <point x="156.58" y="743.939"/>
      <point x="188.422" y="725.761"/>
      <point x="195.373" y="691.893" type="curve" smooth="yes"/>
      <point x="198.884" y="674.783"/>
      <point x="200.523" y="658.451"/>
      <point x="200.523" y="642.991" type="curve" smooth="yes"/>
      <point x="200.523" y="554.078"/>
      <point x="146.128" y="494.415"/>
      <point x="85.6094" y="481.993" type="curve" smooth="yes"/>
      <point x="77.2334" y="480.274" type="line"/>
      <point x="76.0748" y="488.746" type="line"/>
      <point x="72.7945" y="512.731" type="line"/>
      <point x="71.7803" y="520.147" type="line"/>
      <point x="79.1122" y="521.652" type="line" smooth="yes"/>
      <point x="117.379" y="529.507"/>
      <point x="134.949" y="574.164"/>
      <point x="134.949" y="604.106" type="curve" smooth="yes"/>
      <point x="134.949" y="608.324"/>
      <point x="134.585" y="612.102"/>
      <point x="133.956" y="615.167" type="curve" smooth="yes"/>
      <point x="131.331" y="627.961"/>
      <point x="66.6117" y="631.973"/>
    </contour>
    <contour>
      <point x="258.266" y="685.511" type="curve" smooth="yes"/>
      <point x="258.266" y="718.517"/>
      <point x="283.25" y="743.897"/>
      <point x="319.32" y="743.897" type="curve" smooth="yes"/>
      <point x="348.227" y="743.897"/>
      <point x="380.051" y="725.743"/>
      <point x="387.022" y="691.898" type="curve" smooth="yes"/>
      <point x="390.558" y="674.734"/>
      <point x="392.207" y="658.351"/>
      <point x="392.207" y="642.844" type="curve" smooth="yes"/>
      <point x="392.207" y="554.017"/>
      <point x="337.882" y="494.378"/>
      <point x="277.407" y="481.921" type="curve" smooth="yes"/>
      <point x="269.031" y="480.196" type="line"/>
      <point x="267.867" y="488.668" type="line"/>
      <point x="264.572" y="512.651" type="line"/>
      <point x="263.554" y="520.066" type="line"/>
      <point x="270.884" y="521.576" type="line" smooth="yes"/>
      <point x="309.119" y="529.451"/>
      <point x="326.663" y="574.071"/>
      <point x="326.663" y="604.017" type="curve" smooth="yes"/>
      <point x="326.663" y="608.256"/>
      <point x="326.296" y="612.053"/>
      <point x="325.663" y="615.129" type="curve" smooth="yes"/>
      <point x="323.028" y="627.92"/>
      <point x="258.266" y="631.899"/>
    </contour>
  </outline>
</glyph>
<glyph name="fraction" format="1">
  <advance width="102"/>
  <unicode hex="2044"/>
  <outline>
    <contour>
      <point x="177.571" y="651" type="line"/>
      <point x="232.064" y="651" type="line"/>
      <point x="-84.5713" y="-17" type="line"/>
      <point x="-139.064" y="-17" type="line"/>
    </contour>
  </outline>
</glyph>
